<?xml version="1.0" standalone="no"?>
<!DOCTYPE svg PUBLIC "-//W3C//DTD SVG 20010904//EN"
 "http://www.w3.org/TR/2001/REC-SVG-20010904/DTD/svg10.dtd">
<svg version="1.0" xmlns="http://www.w3.org/2000/svg"
 width="1280.000000pt" height="1280.000000pt" viewBox="0 0 1280.000000 1280.000000"
 preserveAspectRatio="xMidYMid meet">
<metadata>
Created by potrace 1.11, written by Peter Selinger 2001-2013
</metadata>
<g transform="translate(0.000000,1280.000000) scale(0.100000,-0.100000)"
fill="#000000" stroke="none">
<path d="M6855 12549 c22 -4 63 -8 90 -7 43 0 46 1 20 8 -16 4 -57 8 -90 8
-57 0 -58 -1 -20 -9z"/>
<path d="M7115 12501 c33 -17 65 -30 70 -30 19 -1 -71 48 -100 54 -19 4 -8 -5
30 -24z"/>
<path d="M6160 12028 c-84 -7 -118 -14 -216 -42 -48 -13 -92 -33 -104 -47 -3
-3 -24 -16 -47 -29 -50 -28 -62 -61 -13 -35 16 8 33 22 37 30 5 8 38 23 73 31
36 9 70 20 75 24 20 15 124 40 172 41 26 1 59 4 73 8 30 8 128 -4 190 -23 25
-8 72 -22 104 -32 62 -18 135 -76 140 -111 2 -10 14 -23 27 -30 46 -23 59 -37
53 -55 -4 -13 0 -18 15 -18 12 0 21 -5 21 -11 0 -7 -10 -9 -27 -5 -16 4 -48 9
-73 13 -25 3 -50 9 -55 14 -15 11 -282 10 -385 -2 -47 -6 -101 -17 -120 -24
-19 -8 -71 -22 -115 -31 -44 -10 -87 -23 -95 -30 -16 -12 -137 -66 -205 -91
-74 -26 -145 -66 -150 -85 -4 -10 -16 -18 -29 -18 -12 0 -33 -10 -46 -22 -14
-13 -26 -22 -27 -20 -2 1 -11 -2 -21 -7 -15 -9 -15 -10 5 -11 12 0 25 -4 28
-10 7 -11 -40 -26 -68 -21 -21 3 -57 -26 -57 -46 0 -7 -10 -13 -21 -13 -16 0
-20 -5 -16 -20 3 -12 0 -20 -6 -20 -7 0 -18 -13 -25 -29 -7 -16 -36 -51 -64
-78 -28 -26 -60 -59 -72 -72 -36 -40 -87 -91 -121 -119 -18 -15 -35 -40 -39
-57 -7 -28 -6 -28 7 -11 10 13 16 15 21 8 4 -7 2 -12 -4 -12 -8 0 -10 -9 -6
-26 5 -17 3 -23 -4 -19 -6 3 -10 -3 -10 -14 0 -12 -4 -21 -9 -21 -5 0 -18 -15
-29 -34 -11 -18 -30 -45 -43 -60 -17 -19 -23 -37 -20 -62 2 -28 -3 -39 -23
-55 -14 -11 -26 -26 -26 -34 0 -7 -7 -15 -15 -19 -8 -3 -14 -10 -13 -17 2 -6
-12 -19 -30 -29 -44 -24 -43 -22 -33 -58 8 -27 7 -32 -7 -32 -24 0 -56 -76
-36 -84 21 -8 17 -24 -8 -32 -33 -10 -46 -27 -64 -81 -9 -26 -24 -57 -34 -68
-10 -11 -22 -33 -26 -50 -4 -16 -18 -53 -31 -82 -12 -28 -23 -66 -23 -82 0
-17 -4 -31 -10 -31 -5 0 -10 -11 -10 -24 0 -12 -10 -34 -23 -48 -21 -23 -22
-28 -11 -60 11 -33 10 -39 -12 -71 -13 -20 -24 -41 -24 -48 0 -13 -34 -60 -80
-110 -16 -18 -27 -36 -24 -41 3 -4 1 -8 -4 -8 -13 0 -22 -49 -11 -56 5 -3 5
-13 0 -22 -16 -31 -31 -88 -31 -115 0 -14 -4 -29 -10 -32 -5 -3 -10 -16 -10
-29 0 -12 -11 -33 -25 -46 -14 -13 -25 -30 -25 -38 0 -9 -7 -23 -15 -33 -14
-15 -14 -18 -1 -32 14 -13 12 -17 -20 -32 -26 -12 -33 -21 -29 -34 4 -14 -3
-22 -27 -32 -18 -7 -42 -21 -52 -31 -18 -16 -18 -18 -3 -18 9 0 17 -4 17 -9 0
-14 -28 -33 -40 -26 -6 3 -1 -12 11 -34 15 -29 18 -45 11 -57 -7 -13 -5 -23 9
-38 23 -24 21 -73 -3 -90 -22 -16 -27 -70 -7 -93 8 -10 20 -30 27 -45 9 -23
18 -28 47 -28 47 0 64 -33 61 -122 -1 -38 1 -68 5 -68 10 0 49 55 49 69 0 6
13 17 30 26 16 8 29 21 27 28 -2 14 44 21 79 13 13 -4 24 -13 24 -22 0 -8 14
-21 31 -28 l31 -13 -46 -31 c-26 -18 -52 -36 -59 -42 -78 -64 -97 -73 -133
-64 -15 4 -24 13 -24 25 0 22 -12 24 -40 7 -17 -11 -22 -10 -29 1 -5 8 -16 11
-26 7 -13 -5 -15 -13 -10 -33 4 -16 11 -31 17 -34 6 -4 7 -12 4 -18 -4 -6 0
-11 9 -11 19 0 50 -28 41 -37 -9 -10 15 -33 35 -33 25 0 35 -37 15 -59 -23
-25 -19 -40 20 -91 19 -25 40 -57 46 -72 7 -14 28 -35 47 -47 20 -11 51 -33
70 -50 19 -17 40 -31 47 -31 24 0 37 -44 38 -127 1 -66 4 -83 16 -83 20 -1
112 -120 106 -137 -4 -8 5 -18 22 -26 15 -6 29 -15 32 -19 3 -4 25 -8 48 -9
47 -3 57 -24 20 -39 -18 -7 -19 -9 -5 -9 9 -1 25 -9 35 -19 48 -48 87 -27 135
74 62 129 74 148 127 204 43 45 64 60 95 66 22 4 49 13 60 20 11 7 39 17 62
23 23 6 88 42 145 80 149 99 140 95 205 76 67 -20 78 -15 23 10 -79 36 -7 49
82 15 29 -11 68 -20 86 -20 20 0 31 -4 27 -10 -3 -6 4 -14 17 -19 21 -9 21
-10 3 -12 -11 -1 9 -5 45 -9 118 -14 224 -32 240 -40 9 -5 22 -5 31 1 7 5 40
9 73 9 51 0 57 -2 46 -15 -18 -21 1 -20 56 5 57 27 104 36 104 21 0 -6 -7 -11
-15 -11 -8 0 -15 -9 -15 -19 0 -11 -8 -22 -17 -24 -12 -3 -10 -5 7 -6 14 0 34
6 44 14 26 19 42 19 26 0 -10 -12 -10 -15 1 -15 8 0 19 10 24 23 8 17 20 23
53 25 45 3 50 -3 27 -34 -37 -48 -8 -57 67 -19 28 14 67 25 90 25 l40 0 -4
-57 c-3 -57 -3 -58 25 -58 29 -1 55 19 39 29 -11 7 -3 56 9 56 5 0 9 -20 9
-45 0 -24 5 -67 11 -95 13 -60 34 -69 24 -10 -6 37 7 98 28 127 4 6 3 14 -3
18 -11 7 -13 44 -4 69 5 12 10 13 25 5 23 -12 24 -27 3 -50 -15 -16 -14 -20 3
-43 24 -33 30 -32 30 3 0 38 29 83 51 79 10 -2 17 3 16 13 -1 12 7 15 32 13
23 -1 34 2 34 11 0 11 20 25 37 25 3 0 2 -11 -1 -25 -9 -37 17 -32 46 7 35 50
61 74 66 60 8 -25 22 -11 22 22 0 38 24 66 42 48 6 -6 30 -8 60 -5 37 4 57 1
83 -13 35 -18 35 -19 28 -69 -3 -27 -16 -69 -29 -92 -12 -24 -19 -45 -14 -48
5 -3 34 20 64 50 31 31 61 53 67 50 6 -4 20 2 32 13 33 29 63 43 82 36 9 -4
27 -1 41 6 21 12 26 11 38 -5 12 -17 14 -17 23 -1 6 10 22 18 41 18 17 1 33 7
36 15 7 16 43 17 48 1 3 -7 -1 -23 -8 -37 -11 -20 -10 -29 3 -55 9 -17 18 -25
20 -18 3 6 13 12 24 12 16 0 18 -6 15 -40 -3 -31 -1 -40 11 -40 8 0 17 9 20
20 3 11 11 20 18 20 7 0 15 5 17 12 8 24 26 -4 48 -74 13 -40 28 -77 34 -83 6
-5 10 -19 8 -31 -2 -11 4 -27 13 -34 8 -7 15 -9 15 -5 0 4 6 2 14 -4 18 -15
33 4 18 22 -5 7 -12 26 -14 42 -3 17 -3 25 -1 18 2 -6 11 -14 19 -17 12 -5 12
-2 3 15 -8 15 -8 28 1 50 12 28 35 32 24 5 -3 -8 0 -17 5 -21 6 -3 9 -11 6
-16 -4 -5 -1 -9 5 -9 18 0 70 -53 70 -71 0 -8 7 -24 15 -35 8 -10 15 -28 15
-39 1 -31 28 -61 42 -47 8 8 8 15 0 25 -7 8 -9 17 -5 20 3 4 2 7 -4 7 -6 0
-16 12 -21 28 -5 15 -13 35 -17 45 -13 32 15 18 30 -15 8 -18 13 -24 10 -13
-5 17 -3 16 18 -5 12 -14 22 -27 20 -29 -2 -2 3 -11 11 -20 16 -18 40 -100 32
-108 -9 -9 -26 8 -26 28 0 10 -7 19 -15 19 -26 0 -14 -49 23 -88 6 -7 12 -18
12 -23 0 -13 42 -59 54 -59 6 0 2 7 -8 15 -23 17 -14 30 20 30 16 1 23 -4 20
-12 -3 -7 7 -19 23 -27 20 -11 30 -25 34 -48 3 -18 9 -41 13 -52 6 -16 3 -17
-24 -11 -37 8 -41 -4 -12 -30 11 -10 17 -21 15 -26 -3 -4 2 -14 10 -22 8 -9
15 -18 15 -22 0 -3 9 -15 20 -27 16 -18 20 -19 20 -5 0 22 -21 67 -32 67 -4 0
-8 5 -8 11 0 23 45 3 59 -26 8 -16 16 -24 19 -17 6 19 22 3 22 -23 0 -13 4
-25 9 -27 4 -1 10 -24 13 -50 4 -38 2 -48 -9 -48 -10 0 -13 -9 -11 -27 2 -20
9 -29 26 -31 12 -2 20 -8 16 -13 -3 -5 -9 -7 -13 -4 -5 2 -16 -4 -26 -15 -10
-11 -30 -20 -44 -20 -20 0 -29 -7 -38 -31 -8 -21 -18 -30 -30 -27 -10 1 -24
-1 -31 -6 -7 -4 -18 -3 -25 2 -13 11 -74 5 -252 -24 -55 -9 -117 -16 -137 -15
-20 0 -40 -4 -43 -9 -3 -6 -16 -10 -28 -10 -13 0 -33 -7 -45 -16 -25 -18 -80
-25 -88 -12 -8 13 -24 9 -24 -6 0 -18 -22 -26 -49 -19 -12 3 -21 1 -21 -5 0
-6 8 -12 18 -14 9 -2 -25 -3 -75 -2 -51 1 -93 -2 -93 -6 0 -5 -3 -15 -6 -24
-4 -10 3 -19 19 -27 22 -10 24 -14 11 -26 -8 -8 -14 -21 -14 -30 0 -8 -11 -28
-25 -45 -14 -16 -25 -38 -25 -49 0 -11 -7 -22 -16 -26 -8 -3 -13 -12 -10 -20
3 -7 -10 -62 -30 -121 -34 -100 -36 -117 -40 -262 -3 -85 -9 -179 -14 -209
-12 -68 -13 -271 -1 -271 7 0 27 -112 23 -132 -1 -4 5 -42 13 -85 26 -135 23
-152 -37 -212 -29 -29 -80 -65 -117 -83 -36 -18 -78 -41 -92 -51 -33 -24 -150
-41 -258 -39 l-85 2 -61 65 c-33 36 -68 65 -77 65 -31 0 -48 -12 -48 -33 0
-12 -11 -31 -23 -42 -13 -11 -30 -38 -37 -60 -7 -22 -19 -45 -27 -52 -24 -19
-8 -60 35 -87 20 -13 48 -35 61 -49 28 -31 85 -42 136 -28 31 8 40 7 57 -9 11
-10 34 -24 52 -31 44 -17 56 -28 49 -45 -4 -11 -28 -14 -103 -14 -59 0 -101
-4 -105 -11 -20 -31 -125 -33 -125 -3 0 8 -4 14 -10 14 -5 0 -10 8 -10 19 0
14 -15 22 -65 36 -35 9 -69 23 -76 31 -6 8 -21 14 -33 14 -11 0 -35 8 -51 19
-17 10 -46 21 -65 25 -88 17 -114 24 -102 25 22 2 13 19 -15 25 -17 5 -29 3
-34 -6 -10 -16 -4 -21 41 -38 19 -7 44 -21 55 -30 11 -10 32 -24 47 -31 14 -8
71 -44 126 -81 93 -63 156 -92 262 -122 25 -7 45 -19 45 -27 0 -48 -147 -50
-191 -2 -18 19 -29 24 -49 19 -26 -7 -87 6 -135 27 -65 29 -98 57 -105 87 -5
23 -12 30 -29 30 -27 0 -110 70 -131 110 -17 34 -15 83 5 91 9 4 -26 25 -90
56 -123 60 -191 113 -183 143 3 11 0 26 -6 34 -10 11 -8 16 9 21 14 4 19 12
16 22 -3 8 -6 19 -6 24 0 13 -55 39 -83 39 -14 0 -38 -7 -53 -15 -16 -8 -39
-15 -52 -15 -30 0 -105 -42 -142 -80 -25 -26 -28 -33 -18 -49 24 -38 127 -68
143 -41 3 6 24 10 45 10 30 0 45 -7 72 -33 49 -50 72 -79 85 -109 9 -22 19
-28 42 -28 16 0 33 5 36 10 7 12 45 -5 45 -20 0 -9 20 -33 123 -142 20 -22 37
-44 37 -48 0 -5 3 -10 8 -12 4 -1 30 -30 57 -63 76 -90 155 -155 190 -155 7 0
22 -11 32 -24 14 -18 26 -23 45 -19 14 3 36 -1 49 -8 13 -7 54 -14 91 -16 45
-2 77 -9 101 -23 20 -12 42 -20 49 -19 21 4 56 -11 62 -26 7 -18 33 -20 39 -2
2 6 13 -5 23 -26 24 -49 12 -71 -42 -75 -21 -2 -42 -9 -46 -15 -4 -7 -19 -13
-34 -14 -14 -1 -37 -9 -50 -18 -23 -15 -61 -17 -184 -13 -25 1 -56 0 -70 -3
-16 -2 -24 0 -22 9 1 6 -3 12 -8 12 -6 0 -23 9 -38 19 -15 11 -45 22 -67 25
-22 3 -64 10 -94 16 -36 7 -58 7 -65 0 -14 -14 19 -47 55 -55 20 -5 31 -14 35
-32 4 -16 19 -30 41 -39 18 -8 31 -19 28 -24 -3 -6 3 -10 13 -10 11 0 25 -6
31 -14 7 -8 27 -18 44 -21 18 -3 41 -10 52 -15 28 -12 172 -34 220 -33 22 0
58 5 81 11 23 6 56 13 73 14 18 1 37 8 43 15 6 7 21 13 34 13 13 0 29 9 36 20
7 11 21 20 31 20 10 0 20 7 23 15 4 8 12 15 20 15 8 0 11 -6 8 -15 -4 -9 0
-15 10 -15 9 0 16 4 16 8 0 5 11 14 25 20 14 6 28 24 31 39 10 37 73 112 101
119 12 3 24 12 27 20 5 12 9 12 26 2 18 -12 24 -9 55 24 19 20 35 44 35 52 0
9 8 16 18 16 10 0 23 5 29 11 8 8 16 7 31 -2 18 -11 27 -11 54 2 35 17 64 17
143 -1 28 -6 55 -11 62 -12 13 -2 -6 -38 -20 -38 -4 0 -17 -9 -29 -20 -12 -11
-29 -20 -38 -20 -19 0 -70 -43 -70 -60 0 -5 -7 -10 -15 -10 -9 0 -25 -9 -37
-19 -11 -11 -26 -17 -32 -15 -7 3 -18 -7 -26 -21 -7 -14 -20 -25 -29 -25 -14
0 -14 2 -1 10 11 7 5 10 -22 10 -38 0 -38 0 -38 -40 0 -22 -4 -40 -10 -40 -5
0 -10 5 -10 10 0 6 0 13 0 18 0 11 -45 20 -73 15 -30 -6 -71 -74 -62 -102 7
-23 45 -22 72 1 26 23 56 36 71 31 20 -8 14 -29 -13 -41 -14 -6 -25 -18 -25
-26 0 -8 -6 -21 -14 -28 -7 -8 -24 -34 -37 -57 -40 -73 -46 -81 -51 -75 -3 3
-17 -6 -31 -20 -15 -14 -33 -26 -42 -26 -13 0 -19 -12 -16 -32 0 -5 -16 -8
-37 -8 -30 0 -46 -7 -68 -30 -16 -16 -39 -30 -51 -30 -13 0 -23 -5 -23 -11 0
-8 -14 -10 -43 -6 -48 7 -199 -28 -257 -59 -80 -42 -154 -56 -177 -33 -14 14
-90 22 -106 12 -7 -4 -25 -8 -40 -9 -21 -1 -31 4 -37 22 -5 13 -17 24 -27 24
-10 0 -38 20 -62 45 -60 61 -80 65 -155 27 -59 -30 -64 -31 -174 -27 -80 3
-119 9 -135 20 -12 8 -25 15 -30 15 -5 0 -22 12 -37 28 -45 43 -71 64 -94 76
-21 11 -140 120 -180 165 -11 14 -41 46 -66 73 -88 94 -102 113 -116 151 -3 9
-16 17 -28 17 -21 -1 -21 -1 -2 -15 11 -8 21 -23 22 -32 2 -10 7 -38 13 -63 7
-34 6 -49 -4 -64 -12 -17 -11 -21 9 -37 13 -10 35 -23 49 -28 28 -11 40 -57
26 -105 -5 -17 -5 -32 -1 -35 14 -11 42 -69 42 -89 0 -11 -7 -25 -15 -32 -8
-7 -15 -19 -15 -26 0 -8 -4 -14 -10 -14 -5 0 -10 5 -10 10 0 15 -77 12 -84 -2
-3 -9 -8 -8 -16 4 -17 28 -51 43 -61 27 -4 -7 -12 -10 -16 -5 -4 5 -2 11 5 13
17 7 15 33 -3 33 -34 0 -95 46 -95 71 0 10 -10 24 -22 30 -25 12 -138 129
-138 142 0 10 -43 71 -52 75 -4 2 -19 27 -34 55 -14 29 -32 59 -40 67 -84 86
-148 205 -206 380 -52 157 -69 249 -104 565 -14 129 -15 172 -5 305 7 85 21
196 32 245 10 50 26 119 34 155 8 36 19 92 25 124 5 33 20 75 32 95 16 26 24
60 30 121 23 257 28 312 36 387 11 95 4 219 -12 232 -6 5 -38 11 -71 13 -58 4
-60 5 -60 31 1 19 -3 26 -12 23 -21 -8 -15 9 17 49 17 21 30 41 30 45 0 4 18
15 40 24 33 13 40 21 40 43 0 54 -12 69 -100 126 -132 86 -271 240 -300 332
-7 22 -17 50 -21 63 -5 13 -7 28 -4 33 4 5 1 9 -4 9 -6 0 -11 7 -11 15 0 9
-13 39 -29 69 -15 29 -33 68 -39 85 -6 17 -16 31 -21 31 -14 0 -32 -71 -31
-123 0 -79 -18 -312 -29 -357 -11 -42 -22 -78 -41 -125 -4 -11 -13 -40 -20
-65 -7 -25 -27 -72 -46 -106 -19 -33 -34 -70 -34 -82 0 -12 -11 -45 -24 -74
-14 -29 -34 -80 -46 -113 -23 -69 -47 -94 -110 -120 -25 -9 -58 -24 -75 -31
-16 -8 -82 -35 -145 -60 -63 -25 -128 -52 -145 -59 -16 -8 -70 -31 -118 -53
-48 -22 -107 -57 -131 -78 -75 -69 -91 -80 -147 -106 -80 -38 -129 -47 -294
-52 -179 -6 -295 -19 -350 -39 -152 -56 -194 -69 -253 -78 -37 -5 -91 -13
-121 -18 -45 -6 -73 -3 -150 16 -70 18 -115 24 -166 21 -76 -4 -103 -17 -265
-133 -41 -30 -100 -71 -130 -91 -30 -21 -76 -55 -101 -76 -26 -21 -49 -38 -52
-38 -3 0 -42 -25 -87 -55 -45 -30 -84 -55 -86 -55 -3 0 -33 -22 -69 -50 -57
-44 -131 -95 -204 -141 -14 -9 -62 -36 -106 -59 -84 -45 -265 -175 -265 -191
0 -5 -4 -9 -10 -9 -14 0 -87 -82 -122 -137 -25 -40 -63 -89 -134 -176 -21 -26
-21 -3567 0 -3567 8 0 16 -7 20 -15 9 -24 26 -17 26 10 0 14 5 25 11 25 12 0
8 -51 -6 -82 -4 -11 -3 -18 4 -18 6 0 11 9 11 20 0 17 7 20 39 20 22 0 41 5
44 13 2 6 8 -1 12 -16 5 -18 3 -33 -4 -40 -8 -8 -11 -5 -12 14 -1 24 -1 24
-12 -3 -6 -16 -19 -28 -28 -28 -10 0 -22 -7 -27 -16 -6 -11 -11 -13 -16 -5 -4
6 -13 11 -19 11 -7 0 -6 -4 3 -10 12 -8 11 -10 -7 -10 -12 0 -25 -5 -28 -11
-4 -6 0 -9 10 -7 10 2 20 -3 23 -10 2 -9 -3 -13 -14 -12 -11 1 -24 2 -31 1
-10 -1 -12 -123 -13 -536 l0 -535 2804 0 2805 0 6 20 c4 12 24 28 45 36 21 9
46 27 55 40 19 30 60 31 95 4 14 -11 33 -20 42 -20 9 0 20 -5 23 -10 3 -6 21
-10 38 -10 18 0 50 -9 72 -20 22 -11 47 -20 57 -20 9 0 20 -4 23 -10 4 -6
1158 -10 3371 -10 l3364 0 0 1952 0 1953 -86 130 c-89 134 -144 237 -144 268
0 32 -50 141 -100 218 -55 83 -128 149 -205 184 -44 20 -83 51 -230 178 -106
91 -191 157 -265 206 -88 58 -265 151 -287 151 -29 0 -125 51 -189 101 -38 29
-140 123 -227 208 -86 86 -180 169 -207 185 -56 32 -57 32 -425 26 -196 -3
-258 5 -535 65 -37 8 -115 14 -180 14 -152 -1 -147 -2 -153 23 -6 23 5 50 34
82 11 11 19 28 19 38 0 10 7 18 15 18 11 0 15 12 15 43 1 38 17 77 34 77 3 0
6 -18 6 -40 0 -50 10 -51 33 -1 11 21 29 49 41 62 12 13 25 32 29 42 6 17 8
17 34 0 16 -10 31 -22 34 -26 4 -5 11 4 16 19 l10 29 6 -25 c9 -31 57 -70 57
-45 0 8 4 15 9 15 5 0 12 16 15 35 4 19 11 35 15 35 5 0 16 -16 25 -35 9 -19
19 -35 21 -35 2 0 2 17 0 37 -2 25 3 42 14 51 9 7 11 11 5 8 -13 -6 -24 15
-24 45 0 12 4 17 11 14 6 -4 13 3 16 15 4 15 11 20 24 17 33 -9 61 60 34 83
-18 15 -20 31 -2 28 9 -2 13 19 14 77 1 44 2 83 3 88 0 13 27 8 40 -8 14 -17
35 -21 25 -5 -3 5 -3 25 1 45 5 26 11 35 26 35 17 0 20 5 16 31 -4 27 -2 30
17 25 21 -5 22 -3 20 44 -3 57 5 62 34 23 24 -32 28 -12 6 27 -18 32 -18 40
-1 40 12 0 12 5 3 30 -12 31 -2 54 13 30 11 -18 21 -10 23 19 1 14 5 17 11 11
6 -6 13 -10 17 -10 12 0 4 47 -11 64 -10 13 -10 16 2 16 8 0 18 -4 24 -10 6
-6 8 4 6 30 -3 27 1 44 12 55 18 19 21 48 6 75 -13 24 3 35 21 14 12 -15 14
-14 20 7 3 13 11 23 18 21 8 -2 10 4 6 18 -4 14 -2 20 9 20 11 0 13 8 9 38 -3
20 -10 43 -16 50 -17 22 14 35 35 15 16 -15 17 -12 11 38 -3 30 -10 59 -15 66
-5 7 -6 18 -2 25 5 7 10 28 11 47 3 41 8 47 28 31 12 -10 15 -10 15 4 0 9 -3
16 -7 16 -5 0 -9 12 -10 27 0 15 -6 29 -12 31 -13 4 -15 22 -2 22 5 0 13 -9
16 -20 6 -20 25 -19 25 1 0 6 -3 8 -7 6 -5 -3 -8 14 -8 37 0 41 0 42 17 22 15
-18 19 -19 28 -6 5 8 10 30 10 49 0 29 2 32 15 21 8 -7 15 -19 15 -26 0 -8 5
-14 10 -14 13 0 13 22 0 56 -6 15 -13 57 -15 93 -3 36 -8 87 -11 114 -4 32 -2
47 6 47 7 0 9 8 5 21 -11 34 -8 153 4 157 6 2 11 12 11 23 0 10 6 18 13 16 9
-1 12 28 12 120 0 68 -3 123 -7 123 -4 0 -14 16 -23 36 -12 28 -12 39 -2 55
10 16 9 25 -6 51 -10 17 -21 52 -24 77 -5 40 -4 44 9 34 11 -10 17 -10 26 -1
15 15 16 74 2 83 -5 3 -10 17 -10 30 0 12 -11 47 -25 76 -18 40 -21 55 -12 61
8 5 8 11 2 16 -5 4 -11 40 -13 81 -2 45 -9 83 -19 98 -22 33 -10 40 15 8 20
-25 21 -25 27 -5 3 11 3 44 0 74 -6 43 -18 69 -65 137 -157 225 -181 262 -195
302 -20 57 -19 74 5 80 23 6 26 32 5 67 -39 67 -56 117 -52 146 7 39 -25 89
-77 125 -20 13 -36 27 -36 30 0 3 -11 19 -25 35 -28 32 -35 77 -10 68 8 -3 17
-15 20 -25 4 -11 18 -24 31 -29 13 -5 24 -14 24 -20 0 -5 5 -10 10 -10 23 0 6
30 -68 116 -42 51 -102 122 -132 158 -30 37 -71 85 -91 106 -30 32 -38 50 -44
96 -5 44 -13 64 -36 86 -16 16 -29 35 -29 41 0 7 -20 33 -43 59 -60 67 -101
117 -136 165 -17 23 -42 50 -56 59 -27 17 -33 40 -12 47 13 4 -34 54 -90 96
-18 13 -33 30 -33 37 0 7 -24 26 -53 43 -29 17 -62 40 -72 51 -10 12 -34 28
-52 37 -18 8 -30 19 -27 24 3 5 -1 9 -8 9 -7 0 -35 21 -61 47 -48 46 -211 153
-234 153 -7 0 -13 5 -13 12 0 6 -3 9 -6 5 -3 -3 -30 8 -60 24 -30 16 -60 29
-67 29 -7 0 -43 18 -78 39 -36 22 -87 44 -115 50 -127 26 -214 57 -214 75 0 9
78 3 119 -10 17 -5 22 -4 17 4 -5 9 -123 52 -141 52 -1 0 -5 -9 -8 -20 -6 -21
-36 -27 -65 -11 -10 5 -43 12 -75 14 -46 4 -59 2 -70 -12 -9 -13 -30 -17 -95
-19 -127 -4 -288 -45 -412 -106 -49 -25 -104 -42 -162 -51 -21 -3 -38 -10 -38
-15 0 -6 -6 -10 -14 -10 -8 0 -22 -7 -31 -16 -15 -16 -16 -14 -13 17 3 26 9
35 26 37 12 2 22 7 22 12 0 18 -20 20 -47 7 -15 -8 -34 -12 -40 -10 -24 9 -13
83 12 83 7 0 16 7 19 16 9 22 8 24 -9 24 -9 0 -15 9 -15 23 0 12 -4 28 -9 36
-15 23 -42 -5 -35 -35 4 -15 2 -24 -5 -24 -6 0 -11 -9 -11 -20 0 -11 -7 -23
-15 -26 -8 -4 -15 -12 -15 -20 0 -10 -7 -13 -23 -9 -18 5 -26 1 -35 -20 -7
-14 -19 -28 -27 -31 -8 -4 -15 -14 -15 -23 0 -20 -60 -76 -78 -72 -20 4 -62
43 -62 58 0 7 -4 13 -10 13 -15 0 -12 -21 7 -42 22 -24 10 -35 -19 -16 -13 8
-35 18 -50 22 -15 3 -43 20 -63 37 -21 18 -41 29 -50 25 -9 -3 -31 9 -55 30
-43 39 -53 70 -20 61 18 -5 18 -3 4 19 -18 27 -210 122 -260 128 -19 3 -47 14
-63 25 -16 12 -38 21 -49 21 -12 0 -33 5 -49 11 -45 17 -151 25 -243 17z
m1779 -752 c18 -19 32 -39 29 -46 -3 -11 -78 56 -78 72 0 16 17 7 49 -26z
m-708 -131 c0 -16 -1 -57 -2 -91 -2 -49 2 -65 18 -81 25 -25 81 -20 104 9 9
12 19 16 22 11 3 -5 -9 -25 -28 -44 -37 -37 -45 -81 -25 -135 6 -15 8 -29 5
-33 -9 -9 -25 22 -25 50 0 44 -43 68 -53 29 -3 -12 -14 -20 -27 -20 -20 0 -22
4 -16 35 5 24 1 46 -11 72 -15 30 -17 47 -10 83 10 51 10 110 1 157 -3 18 -3
40 0 49 9 24 47 -50 47 -91z m-131 28 c0 -40 -11 -74 -21 -67 -10 6 -12 55 -3
78 10 25 24 18 24 -11z m690 17 c0 -5 -2 -10 -4 -10 -3 0 -8 5 -11 10 -3 6 -1
10 4 10 6 0 11 -4 11 -10z m95 -77 c49 -56 70 -65 79 -35 3 9 4 5 2 -10 -2
-19 2 -28 16 -31 12 -4 18 -14 18 -34 l-1 -28 -18 23 c-11 12 -22 22 -25 22
-12 0 -6 -36 13 -75 40 -82 47 -106 43 -135 -3 -24 -8 -29 -22 -25 -24 8 -34
-9 -21 -34 12 -21 3 -87 -9 -74 -4 4 -13 25 -20 46 -9 29 -17 37 -36 37 -22 0
-64 31 -64 48 0 4 -9 18 -20 32 l-19 25 6 -40 c5 -39 34 -74 61 -75 6 0 12 -5
12 -10 0 -6 7 -27 17 -48 9 -20 15 -40 15 -44 -1 -5 2 -8 8 -8 6 0 10 -9 10
-20 0 -28 -17 -25 -24 5 -4 14 -22 42 -40 63 -18 20 -41 53 -51 72 -10 19 -22
37 -26 41 -5 3 -18 23 -29 45 -17 34 -19 36 -20 14 0 -14 4 -41 10 -59 5 -19
8 -37 5 -39 -9 -9 -35 20 -35 38 0 10 -5 20 -10 22 -6 2 -7 14 -1 34 5 18 6
36 2 40 -4 5 -13 28 -20 50 -8 23 -29 59 -47 80 -34 38 -38 54 -17 61 13 5 58
-69 69 -112 8 -32 34 -74 47 -75 14 0 7 31 -14 59 -11 15 -22 34 -23 42 -7 29
-31 79 -38 79 -4 0 -8 7 -8 15 0 33 49 10 79 -37 11 -18 36 -53 56 -78 19 -25
35 -51 35 -59 0 -23 74 -141 88 -141 6 0 12 2 12 5 0 16 -39 85 -64 112 -23
26 -29 41 -28 73 2 43 -15 87 -42 109 -9 8 -16 24 -16 36 0 13 -6 26 -12 29
-7 3 -1 4 15 1 22 -4 27 -2 27 15 0 28 16 18 75 -47z m-802 -75 c3 -21 1 -40
-4 -43 -5 -4 -9 -43 -9 -88 0 -125 -2 -137 -16 -137 -8 0 -14 -9 -14 -19 0
-10 -9 -29 -19 -42 -18 -23 -20 -23 -27 -5 -4 10 -2 33 4 50 10 28 18 81 38
271 8 76 36 84 47 13z m195 -56 l-4 -27 -13 27 c-8 15 -10 35 -7 45 7 17 8 17
17 0 6 -10 9 -30 7 -45z m919 22 c-9 -9 -28 6 -21 18 4 6 10 6 17 -1 6 -6 8
-13 4 -17z m203 12 c0 -2 3 -12 6 -21 6 -15 4 -15 -15 -4 -25 16 -27 29 -6 29
8 0 15 -2 15 -4z m-950 -68 c0 -6 -6 -5 -15 2 -8 7 -15 14 -15 16 0 2 7 1 15
-2 8 -4 15 -11 15 -16z m35 -68 c7 0 18 -7 25 -15 17 -20 -1 -19 -39 3 -30 17
-38 32 -24 46 4 4 12 -2 17 -13 5 -12 15 -21 21 -21z m1004 -6 c22 -8 42 -22
45 -29 11 -29 -14 -25 -59 10 -51 38 -47 44 14 19z m-420 -73 c7 -5 9 -11 4
-14 -6 -4 -19 0 -29 8 -15 11 -16 14 -4 15 8 0 21 -4 29 -9z m526 -22 c11 -17
-1 -21 -15 -4 -8 9 -8 15 -2 15 6 0 14 -5 17 -11z m-557 -72 c3 -16 1 -17 -17
-7 -25 13 -28 33 -4 28 10 -2 19 -11 21 -21z m-1035 -57 c-3 -11 -7 -20 -9
-20 -2 0 -4 9 -4 20 0 11 4 20 9 20 5 0 7 -9 4 -20z m956 -119 c1 -16 -3 -21
-8 -15 -10 9 -15 38 -11 64 2 22 18 -19 19 -49z m-48 -194 c-10 -9 -11 -8 -5
6 3 10 9 15 12 12 3 -3 0 -11 -7 -18z m39 7 c0 -8 -5 -12 -10 -9 -6 4 -8 11
-5 16 9 14 15 11 15 -7z m730 -54 c0 -5 -5 -10 -11 -10 -5 0 -7 5 -4 10 3 6 8
10 11 10 2 0 4 -4 4 -10z m-1520 -72 c9 -23 9 -23 10 2 2 24 2 24 11 -5 10
-28 19 -148 20 -242 0 -24 3 -43 7 -43 4 0 6 -27 5 -60 -1 -32 2 -62 7 -65 6
-4 10 -14 10 -23 0 -13 -6 -11 -25 10 -14 15 -25 31 -24 35 1 4 1 24 0 43 -1
30 -5 35 -26 36 -20 2 -25 -3 -25 -22 0 -13 -4 -24 -10 -24 -5 0 -10 11 -10
24 0 14 5 28 10 31 6 3 10 15 10 26 0 11 7 22 15 25 20 8 19 20 -5 44 -19 19
-19 22 -5 43 18 25 19 60 4 88 -9 19 -4 99 7 99 3 0 9 -10 14 -22z m1180 -79
c0 -14 -17 -10 -23 5 -4 10 -1 13 9 9 7 -3 14 -9 14 -14z m684 -19 c49 -22 64
-33 60 -45 -9 -22 -32 -19 -70 10 -18 14 -37 25 -43 25 -6 0 -11 2 -11 4 0 2
-3 11 -6 20 -8 21 -6 21 70 -14z m-607 -13 c9 -13 35 -31 73 -49 24 -11 31
-13 72 -17 9 0 20 -10 23 -21 3 -11 12 -20 20 -20 7 0 15 -7 19 -15 7 -19 -27
-21 -46 -2 -20 18 -68 43 -112 57 -40 13 -52 20 -86 54 -24 23 -16 50 11 36
10 -6 22 -16 26 -23z m-1347 -1 c0 -3 -4 -8 -10 -11 -5 -3 -10 -1 -10 4 0 6 5
11 10 11 6 0 10 -2 10 -4z m40 -45 c0 -11 -7 -52 -15 -92 -8 -39 -18 -101 -21
-137 -5 -56 -4 -64 9 -59 17 6 29 -13 34 -55 2 -20 -2 -28 -12 -28 -10 0 -15
11 -15 35 0 19 -2 35 -4 35 -2 0 -11 3 -20 6 -11 4 -16 0 -16 -14 0 -11 -7
-22 -15 -26 -8 -3 -15 -12 -15 -20 0 -9 -8 -20 -18 -25 -16 -8 -18 -6 -17 12
2 12 7 21 12 20 5 -1 8 11 5 26 -2 16 3 41 10 57 9 17 15 64 16 112 2 46 8 92
15 103 9 15 9 21 0 27 -17 11 1 36 21 29 9 -4 16 -2 16 3 0 6 7 10 15 10 8 0
15 -9 15 -19z m-800 -6 c0 -9 -57 -34 -64 -28 -13 13 -5 22 22 26 15 2 30 5
35 6 4 0 7 -1 7 -4z m2797 -21 c-3 -3 -12 -4 -19 -1 -8 3 -5 6 6 6 11 1 17 -2
13 -5z m-2880 -29 c-7 -16 -37 -21 -37 -5 0 10 32 31 39 25 2 -2 1 -11 -2 -20z
m1087 -50 c-11 -43 46 -203 76 -213 18 -6 8 83 -12 106 -18 20 -31 66 -21 75
3 4 14 -10 24 -31 10 -20 37 -59 59 -86 51 -61 63 -83 51 -90 -5 -3 -18 10
-30 29 -22 38 -57 50 -46 15 4 -12 -2 -31 -17 -50 -17 -24 -20 -35 -12 -48 6
-9 15 -17 20 -17 19 0 33 -16 39 -45 4 -17 18 -38 31 -46 13 -9 24 -23 24 -31
0 -8 7 -21 15 -29 8 -9 15 -20 15 -25 0 -13 -31 18 -60 61 -14 19 -30 41 -37
48 -7 7 -13 18 -13 23 0 5 -6 9 -12 10 -7 0 -28 18 -46 39 -29 34 -30 38 -11
33 19 -5 21 -3 14 13 -4 10 -10 30 -12 44 -3 14 -13 43 -23 65 -10 22 -22 57
-25 78 -4 20 -10 37 -14 37 -3 0 -7 10 -8 23 -1 12 -5 38 -8 57 l-6 35 25 -30
c16 -18 23 -37 20 -50z m1886 40 c0 -8 -5 -15 -11 -15 -5 0 -8 4 -5 9 4 5 0
12 -6 14 -8 3 -6 6 5 6 9 1 17 -6 17 -14z m-1041 -35 c14 -27 17 -40 8 -40
-14 0 -58 65 -50 74 13 12 21 5 42 -34z m1079 21 c3 -8 -1 -12 -9 -9 -7 2 -15
10 -17 17 -3 8 1 12 9 9 7 -2 15 -10 17 -17z m-138 -11 c0 -5 -4 -10 -9 -10
-6 0 -13 5 -16 10 -3 6 1 10 9 10 9 0 16 -4 16 -10z m-3023 -16 c-3 -3 -12 -4
-19 -1 -8 3 -5 6 6 6 11 1 17 -2 13 -5z m1673 -19 c0 -8 -4 -15 -10 -15 -5 0
-10 7 -10 15 0 8 5 15 10 15 6 0 10 -7 10 -15z m1028 -28 c17 -10 32 -19 32
-21 0 -14 -112 27 -128 47 -11 13 -9 14 25 3 21 -6 53 -19 71 -29z m-533 -74
c16 -13 26 -25 22 -29 -9 -9 -87 55 -87 72 0 11 4 10 18 -3 10 -10 31 -28 47
-40z m-287 9 c2 -7 -2 -10 -12 -6 -9 3 -16 11 -16 16 0 13 23 5 28 -10z m-329
-19 c0 -25 -1 -25 -8 -8 -5 11 -7 23 -4 28 8 14 13 7 12 -20z m-749 -43 c0
-11 -4 -20 -9 -20 -5 0 -7 9 -4 20 3 11 7 20 9 20 2 0 4 -9 4 -20z m-920 -30
c0 -5 -4 -10 -10 -10 -5 0 -10 5 -10 10 0 6 5 10 10 10 6 0 10 -4 10 -10z
m1575 -30 c3 -5 -1 -10 -10 -10 -9 0 -13 5 -10 10 3 6 8 10 10 10 2 0 7 -4 10
-10z m850 0 c3 -5 2 -10 -4 -10 -5 0 -13 5 -16 10 -3 6 -2 10 4 10 5 0 13 -4
16 -10z m-179 -31 c13 -15 14 -19 3 -19 -14 1 -59 33 -59 43 0 11 40 -6 56
-24z m44 1 c8 -5 11 -10 5 -10 -5 0 -17 5 -25 10 -8 5 -10 10 -5 10 6 0 17 -5
25 -10z m-730 -10 c0 -5 -4 -10 -10 -10 -5 0 -10 5 -10 10 0 6 5 10 10 10 6 0
10 -4 10 -10z m475 0 c3 -5 2 -10 -4 -10 -5 0 -13 5 -16 10 -3 6 -2 10 4 10 5
0 13 -4 16 -10z m-1148 -32 c-3 -8 -6 -5 -6 6 -1 11 2 17 5 13 3 -3 4 -12 1
-19z m1429 -25 c-5 -6 -46 29 -46 39 0 4 11 -2 25 -14 14 -12 23 -23 21 -25z
m-1436 -39 c0 -29 -4 -43 -11 -39 -9 6 -9 22 1 83 0 1 2 2 5 2 3 0 5 -21 5
-46z m134 14 c-3 -18 -12 -53 -19 -78 -7 -25 -16 -56 -18 -70 -20 -95 -46
-170 -58 -170 -10 0 -7 80 2 86 5 3 9 20 9 39 0 19 4 36 9 40 5 3 22 42 37 88
14 45 29 85 31 90 9 16 12 5 7 -25z m360 -26 c-4 -18 -10 -32 -14 -32 -12 0
-18 47 -7 65 14 26 28 4 21 -33z m266 28 c0 -5 -4 -10 -10 -10 -5 0 -10 5 -10
10 0 6 5 10 10 10 6 0 10 -4 10 -10z m500 0 c8 -5 11 -10 5 -10 -5 0 -17 5
-25 10 -8 5 -10 10 -5 10 6 0 17 -5 25 -10z m-2100 -5 c0 -2 -10 -10 -22 -16
-21 -11 -22 -11 -9 4 13 16 31 23 31 12z m658 -29 c-10 -24 -38 -44 -38 -28 0
9 38 52 45 52 3 0 0 -11 -7 -24z m-1081 3 c105 -25 129 -43 71 -51 -18 -3 -42
-9 -53 -13 -18 -8 -19 -7 -6 8 17 22 14 25 -34 35 -21 4 -40 13 -43 20 -5 15
5 15 65 1z m2868 1 c3 -5 1 -10 -4 -10 -6 0 -11 5 -11 10 0 6 2 10 4 10 3 0 8
-4 11 -10z m-1142 -68 c3 -15 9 -40 12 -57 l6 -30 -15 25 c-37 60 -47 104 -22
94 8 -3 16 -17 19 -32z m662 28 c3 -5 2 -10 -4 -10 -5 0 -13 5 -16 10 -3 6 -2
10 4 10 5 0 13 -4 16 -10z m492 -24 c60 -36 121 -91 110 -102 -4 -4 -114 78
-176 132 -15 14 17 -1 66 -30z m-1843 -8 c-9 -30 -64 -106 -63 -87 1 22 12 43
39 77 30 38 34 39 24 10z m212 -29 c-4 -47 -22 -72 -32 -46 -5 15 20 87 31 87
3 0 3 -18 1 -41z m1266 1 c5 0 35 -22 66 -50 31 -27 62 -50 69 -50 7 0 13 -8
13 -19 0 -10 7 -24 15 -31 9 -7 14 -19 11 -27 -3 -7 -1 -13 4 -13 6 0 10 -7
10 -16 0 -25 -23 -11 -41 24 -28 54 -91 124 -126 138 -18 8 -33 18 -33 23 0 5
-13 12 -30 16 -16 4 -30 11 -30 16 0 5 11 7 25 3 20 -5 25 -2 26 12 1 14 3 14
6 -3 2 -13 9 -23 15 -23z m-357 19 c11 -17 -1 -21 -15 -4 -8 9 -8 15 -2 15 6
0 14 -5 17 -11z m125 -3 c0 -3 -4 -8 -10 -11 -5 -3 -10 -1 -10 4 0 6 5 11 10
11 6 0 10 -2 10 -4z m354 -41 c11 -8 17 -17 14 -21 -7 -6 -48 17 -48 28 0 12
13 9 34 -7z m376 5 c8 -5 11 -10 5 -10 -5 0 -17 5 -25 10 -8 5 -10 10 -5 10 6
0 17 -5 25 -10z m-1020 -44 c0 -6 -7 -2 -15 8 -8 11 -15 25 -15 30 0 6 7 2 15
-8 8 -11 15 -25 15 -30z m171 13 c5 -11 7 -19 4 -19 -6 0 -45 38 -45 45 0 11
31 -9 41 -26z m29 21 c8 -5 11 -10 5 -10 -5 0 -17 5 -25 10 -8 5 -10 10 -5 10
6 0 17 -5 25 -10z m-341 -71 l12 -24 -21 25 c-11 14 -25 34 -32 45 -10 19 -10
19 9 -1 11 -11 26 -31 32 -45z m-1054 21 c-3 -5 -11 -10 -16 -10 -6 0 -7 5 -4
10 3 6 11 10 16 10 6 0 7 -4 4 -10z m1465 0 c0 -5 -4 -10 -10 -10 -5 0 -10 5
-10 10 0 6 5 10 10 10 6 0 10 -4 10 -10z m765 0 c3 -5 1 -10 -4 -10 -6 0 -11
5 -11 10 0 6 2 10 4 10 3 0 8 -4 11 -10z m-1818 -40 c1 -11 -2 -22 -8 -25 -10
-7 -13 28 -2 38 9 9 9 10 10 -13z m1093 -11 c0 -5 -4 -9 -10 -9 -5 0 -10 7
-10 16 0 8 5 12 10 9 6 -3 10 -10 10 -16z m430 0 c0 -14 -16 -11 -29 5 -10 12
-8 13 8 9 12 -3 21 -9 21 -14z m-1060 -19 c0 -11 -4 -20 -9 -20 -11 0 -2 -71
10 -84 11 -13 12 -46 1 -46 -18 0 -35 78 -28 124 7 46 26 65 26 26z m570 -1
c0 -5 -4 -9 -10 -9 -5 0 -10 7 -10 16 0 8 5 12 10 9 6 -3 10 -10 10 -16z m300
-9 c0 -5 -4 -10 -10 -10 -5 0 -10 5 -10 10 0 6 5 10 10 10 6 0 10 -4 10 -10z
m610 -12 c0 -6 -6 -5 -15 2 -8 7 -15 14 -15 16 0 2 7 1 15 -2 8 -4 15 -11 15
-16z m-1566 -4 c20 -19 20 -24 1 -24 -8 0 -19 9 -25 20 -13 24 2 27 24 4z
m286 -10 c0 -8 -4 -12 -10 -9 -5 3 -10 13 -10 21 0 8 5 12 10 9 6 -3 10 -13
10 -21z m-670 -4 c0 -19 -11 -26 -23 -14 -8 8 3 34 14 34 5 0 9 -9 9 -20z
m1390 4 c0 -8 -4 -12 -10 -9 -5 3 -10 10 -10 16 0 5 5 9 10 9 6 0 10 -7 10
-16z m-305 -4 c3 -6 -1 -7 -9 -4 -18 7 -21 14 -7 14 6 0 13 -4 16 -10z m-1671
-41 c-16 -17 -48 -43 -71 -58 -23 -16 -40 -31 -36 -35 3 -3 1 -6 -5 -6 -6 0
-14 -9 -17 -21 -4 -12 -12 -18 -21 -15 -8 3 -14 -1 -14 -8 0 -8 -7 -17 -16
-20 -8 -3 -12 -11 -8 -17 4 -8 1 -8 -15 0 -19 11 -33 7 -71 -17 -2 -2 2 -7 9
-11 10 -7 8 -16 -11 -45 -25 -39 -54 -54 -71 -37 -8 8 -7 11 4 11 8 0 20 9 27
20 7 11 19 20 27 20 21 0 19 17 -3 31 -16 10 -17 16 -8 35 6 14 20 24 32 24
20 0 68 29 49 30 -5 0 14 11 43 25 33 15 56 33 59 46 4 13 13 20 27 18 37 -2
45 1 40 16 -4 9 0 15 7 15 8 0 25 9 39 20 36 27 38 15 4 -21z m2237 7 c15 -32
14 -33 -2 -23 -24 15 -43 57 -26 57 6 -1 19 -16 28 -34z m-675 -13 c-7 -7 -26
7 -26 19 0 6 6 6 15 -2 9 -7 13 -15 11 -17z m165 5 c7 -13 18 -27 25 -31 8 -4
14 -16 14 -25 -1 -13 -5 -12 -21 8 -11 14 -29 35 -40 48 -17 18 -18 22 -5 22
8 0 21 -10 27 -22z m-1266 -15 c-2 -16 -4 -31 -4 -35 -2 -15 -31 -8 -31 7 0
18 22 55 32 55 4 0 5 -12 3 -27z m510 -109 c7 -83 -1 -95 -16 -22 -16 76 -20
120 -13 137 9 23 20 -17 29 -115z m1040 99 l18 -28 -21 19 c-12 11 -22 23 -22
28 0 14 7 9 25 -19z m219 -48 c11 -8 16 -18 11 -22 -4 -5 -10 -2 -12 5 -3 6
-10 12 -16 12 -7 0 -18 9 -25 21 -12 18 -11 19 5 10 10 -6 27 -17 37 -26z
m481 -1 c50 -49 39 -52 -14 -3 -25 21 -39 39 -33 39 6 0 28 -16 47 -36z
m-1055 -14 c6 -11 7 -20 3 -20 -5 0 -14 9 -21 20 -7 11 -8 20 -2 20 5 0 14 -9
20 -20z m-1220 3 c0 -5 -5 -15 -10 -23 -8 -12 -10 -11 -10 8 0 12 5 22 10 22
6 0 10 -3 10 -7z m1099 -42 c-2 -6 -10 2 -17 17 -11 25 -11 25 4 10 9 -9 15
-21 13 -27z m461 -16 c0 -12 -29 -3 -34 10 -4 13 -2 14 14 5 11 -6 20 -13 20
-15z m557 -11 c-7 -7 -37 7 -37 17 0 6 9 5 21 -1 11 -7 19 -14 16 -16z m-1640
-16 c-3 -7 -5 -2 -5 12 0 14 2 19 5 13 2 -7 2 -19 0 -25z m727 26 c9 -3 16
-11 16 -18 0 -13 47 -66 76 -83 16 -10 16 -12 3 -12 -9 -1 -22 6 -29 14 -7 8
-20 15 -29 15 -21 1 -61 30 -40 30 9 0 10 3 3 8 -16 11 -36 52 -25 52 5 0 16
-3 25 -6z m-1209 -13 c3 -5 1 -12 -4 -15 -5 -3 -11 1 -15 9 -6 16 9 21 19 6z
m1439 -7 c4 -9 4 -19 2 -21 -8 -8 -26 8 -26 23 0 19 16 18 24 -2z m-114 -22
c0 -4 27 -37 60 -72 33 -36 60 -69 60 -73 0 -15 -37 13 -69 52 -18 22 -41 50
-52 62 -21 24 -24 39 -9 39 6 0 10 -4 10 -8z m-2090 -20 c0 -13 -39 -32 -45
-22 -3 5 3 13 12 19 22 13 33 14 33 3z m2245 -12 c3 -5 2 -10 -4 -10 -5 0 -13
5 -16 10 -3 6 -2 10 4 10 5 0 13 -4 16 -10z m-905 -16 c0 -23 -23 -98 -31
-104 -13 -9 -22 -60 -10 -60 6 0 13 11 17 25 3 14 10 25 15 25 15 0 10 -32 -8
-53 -10 -10 -27 -37 -38 -60 -11 -23 -26 -43 -33 -45 -17 -5 -9 88 11 120 9
13 21 43 27 68 17 61 33 100 42 100 5 0 8 -7 8 -16z m1848 -14 c18 -29 -3 -24
-22 5 -11 16 -12 23 -3 20 7 -3 18 -14 25 -25z m-1233 -17 l18 -28 -21 19
c-12 11 -22 23 -22 28 0 14 7 9 25 -19z m74 -10 c12 -14 24 -38 27 -52 4 -14
13 -36 20 -48 8 -13 11 -23 8 -23 -12 0 -54 51 -54 65 0 8 -9 30 -21 49 -24
42 -10 48 20 9z m-2094 8 c-12 -12 -65 -25 -65 -17 0 8 39 24 60 25 9 1 10 -2
5 -8z m2713 -26 c-3 -3 -9 2 -12 12 -6 14 -5 15 5 6 7 -7 10 -15 7 -18z m169
-2 c9 -24 -3 -24 -26 1 l-23 25 22 -6 c12 -3 24 -12 27 -20z m-507 -58 c0 -5
-5 -3 -10 5 -5 8 -10 20 -10 25 0 6 5 3 10 -5 5 -8 10 -19 10 -25z m-2477 -5
c3 -13 -3 -24 -20 -35 -28 -19 -28 -19 -37 17 -5 20 -2 28 11 31 34 9 41 7 46
-13z m1362 -47 c-5 -21 -9 -23 -18 -13 -9 10 -9 14 1 17 6 3 12 14 13 26 0 12
3 16 6 9 3 -7 2 -25 -2 -39z m1160 7 c3 -5 1 -10 -4 -10 -6 0 -11 5 -11 10 0
6 2 10 4 10 3 0 8 -4 11 -10z m625 -16 c0 -20 -7 -17 -20 6 -9 16 -8 18 5 14
8 -4 15 -12 15 -20z m-2230 -14 c0 -10 -4 -22 -10 -25 -6 -4 -10 7 -10 25 0
18 4 29 10 25 6 -3 10 -15 10 -25z m-1004 5 c-26 -19 -47 -19 -40 0 4 8 18 15
33 15 25 -1 25 -1 7 -15z m3664 -24 c0 -5 -9 -7 -20 -4 -11 3 -20 7 -20 9 0 2
9 4 20 4 11 0 20 -4 20 -9z m-3763 -27 c-3 -3 -12 -4 -19 -1 -8 3 -5 6 6 6 11
1 17 -2 13 -5z m1063 -9 c-7 -9 -15 -13 -17 -11 -7 7 7 26 19 26 6 0 6 -6 -2
-15z m530 -50 c0 -16 -27 -32 -36 -22 -7 6 17 36 29 37 4 0 7 -7 7 -15z
m-2963 -81 c-3 -3 -12 -4 -19 -1 -8 3 -5 6 6 6 11 1 17 -2 13 -5z m2869 -100
c-4 -9 -9 -15 -11 -12 -3 3 -3 13 1 22 4 9 9 15 11 12 3 -3 3 -13 -1 -22z
m-2814 -326 c-9 -9 -15 -9 -24 0 -9 9 -7 12 12 12 19 0 21 -3 12 -12z m3262
-177 c4 -5 0 -12 -6 -14 -8 -3 -6 -6 5 -6 19 -1 23 -16 7 -26 -6 -3 -21 2 -34
13 -22 17 -22 19 -8 30 21 14 29 14 36 3z m-1690 -23 c-30 -16 -41 -17 -70 -8
-50 17 -34 28 41 28 l65 0 -36 -20z m1850 -29 c-6 -11 -24 -2 -24 11 0 5 7 7
15 4 8 -4 12 -10 9 -15z m-1457 -4 c-13 -9 -46 -13 -104 -13 -105 1 -96 16 12
21 44 1 87 4 95 5 11 1 10 -2 -3 -13z m149 -10 c14 -13 13 -15 -5 -15 -12 0
-21 6 -21 15 0 8 3 15 6 15 3 0 12 -7 20 -15z m1413 -6 c-18 -11 -39 -11 -39
0 0 5 12 9 26 9 18 0 22 -3 13 -9z m-1735 -23 c16 -10 27 -11 40 -4 12 7 26 7
43 -1 29 -13 56 -14 48 -2 -3 5 5 13 17 17 13 4 24 2 26 -5 2 -6 12 -11 23
-11 10 0 19 -4 19 -9 0 -16 -85 -24 -110 -11 -19 10 -22 10 -17 -2 8 -23 -149
-31 -233 -12 -36 8 -78 16 -94 19 -53 8 -70 16 -55 26 8 5 25 7 39 4 14 -3 32
0 40 5 22 15 187 4 214 -14z m283 8 c-3 -3 -12 -4 -19 -1 -8 3 -5 6 6 6 11 1
17 -2 13 -5z m4303 -31 c0 -9 10 -31 21 -50 14 -22 18 -38 12 -44 -15 -15 -41
0 -40 24 1 12 -2 39 -7 60 -5 27 -4 37 3 32 6 -3 11 -13 11 -22z m-3470 -13
c0 -5 -4 -10 -10 -10 -5 0 -10 5 -10 10 0 6 5 10 10 10 6 0 10 -4 10 -10z
m-493 -46 c-3 -3 -12 -4 -19 -1 -8 3 -5 6 6 6 11 1 17 -2 13 -5z m1357 -19
c-4 -8 -10 -15 -15 -15 -4 0 -6 7 -3 15 4 8 10 15 15 15 4 0 6 -7 3 -15z
m-1194 -135 c0 -5 -5 -10 -11 -10 -5 0 -7 5 -4 10 3 6 8 10 11 10 2 0 4 -4 4
-10z m-2070 -10 c0 -5 -4 -10 -10 -10 -5 0 -10 5 -10 10 0 6 5 10 10 10 6 0
10 -4 10 -10z m-50 -15 c0 -8 -4 -15 -10 -15 -5 0 -10 7 -10 15 0 8 5 15 10
15 6 0 10 -7 10 -15z m3900 -1167 c30 -9 73 -19 95 -23 42 -7 121 -41 143 -62
6 -6 12 -19 12 -29 0 -13 -3 -14 -15 -4 -12 10 -15 10 -15 -4 0 -9 5 -16 10
-16 6 0 10 -7 10 -15 0 -8 -3 -15 -7 -15 -11 0 -42 -69 -45 -100 -3 -21 -11
-27 -47 -34 -24 -5 -54 -20 -67 -33 -13 -13 -20 -23 -17 -23 4 0 2 -5 -4 -11
-13 -13 -120 -13 -137 -1 -6 5 -37 19 -68 31 -31 13 -71 36 -87 52 -17 16 -37
29 -45 29 -8 0 -18 9 -21 20 -5 14 -16 20 -38 21 -52 1 -67 6 -88 30 -21 24
-24 40 -10 55 5 5 11 27 13 49 3 37 5 40 35 43 21 2 34 10 38 22 5 16 13 18
54 13 31 -3 57 -1 74 8 35 19 157 17 227 -3z m922 -188 c-2 -30 -3 -64 -3 -74
0 -25 -27 -76 -40 -76 -5 0 -12 14 -16 31 -4 22 -8 27 -14 17 -5 -7 -9 -8 -9
-2 0 5 6 16 12 22 10 10 16 8 31 -10 14 -17 13 -13 -3 15 -22 38 -23 53 -5
132 4 17 15 36 24 43 14 11 17 9 22 -15 3 -15 3 -53 1 -83z m537 -62 c1 -5 -3
-8 -8 -8 -12 0 -22 30 -14 43 6 10 20 -13 22 -35z m-649 -67 c0 -5 3 -17 7
-27 5 -13 3 -15 -8 -9 -7 5 -3 -4 9 -20 19 -23 22 -37 17 -74 -4 -34 -3 -40 4
-24 7 16 18 21 44 21 30 0 36 -4 40 -26 4 -18 0 -33 -11 -44 -23 -22 -90 -49
-97 -38 -3 4 -22 6 -44 3 -77 -10 -102 33 -62 107 11 19 26 50 35 68 8 17 22
32 30 32 9 0 16 9 16 20 0 11 5 20 10 20 6 0 10 -4 10 -9z m-1386 -248 c45 21
85 22 92 2 5 -12 10 -13 32 -1 28 13 82 4 113 -20 18 -13 89 -35 154 -46 90
-15 336 -12 376 6 34 14 42 14 115 -6 44 -11 93 -21 110 -21 21 0 30 -5 27
-13 -2 -6 4 -14 13 -18 14 -6 12 -11 -18 -39 -36 -33 -59 -97 -35 -97 6 0 4
-5 -6 -11 -12 -7 -15 -15 -9 -26 11 -18 -6 -74 -26 -86 -14 -9 -52 -84 -52
-104 0 -7 -4 -13 -10 -13 -5 0 -7 -13 -4 -30 5 -22 2 -31 -10 -36 -10 -4 -16
-18 -16 -39 0 -26 -7 -39 -30 -55 -20 -14 -30 -30 -30 -47 0 -16 -7 -27 -20
-30 -11 -3 -20 -9 -20 -13 0 -4 -12 -12 -26 -19 -18 -8 -25 -18 -22 -35 3 -26
-17 -56 -38 -56 -7 0 -18 -9 -24 -20 -6 -11 -19 -20 -30 -20 -10 0 -48 -30
-85 -66 -36 -36 -71 -64 -78 -61 -6 2 -18 -2 -25 -10 -8 -7 -18 -10 -23 -7 -6
3 -13 -3 -16 -14 -4 -15 -17 -21 -55 -26 -34 -5 -53 -3 -58 4 -5 8 -9 6 -14
-5 -5 -13 -10 -14 -19 -6 -10 7 -18 5 -30 -9 -9 -11 -17 -24 -17 -29 0 -4 -17
-16 -37 -27 -55 -28 -70 -43 -52 -55 10 -6 10 -9 2 -9 -7 0 -13 -7 -13 -15 0
-8 -7 -15 -15 -15 -8 0 -15 -7 -15 -15 0 -31 -58 -72 -94 -66 -5 1 -13 -3 -17
-10 -5 -9 -11 -8 -24 4 -9 10 -20 17 -24 17 -4 0 -14 11 -21 25 -7 14 -19 25
-26 25 -21 0 -38 39 -24 55 7 8 7 15 1 19 -6 4 -4 17 5 34 7 15 14 33 14 40 0
6 3 12 8 13 69 6 96 21 87 50 -4 12 3 26 20 41 29 25 44 71 46 143 2 47 -6 70
-50 145 -10 17 -26 56 -35 82 -3 11 -11 15 -21 12 -13 -5 -15 -2 -9 21 5 20 2
31 -8 39 -15 11 -41 78 -61 154 -8 34 -8 48 2 65 12 18 11 22 -5 34 -17 13
-17 14 9 17 6 0 12 13 13 27 1 15 4 34 8 44 3 9 1 46 -4 82 -14 83 0 134 32
125 15 -3 19 -2 14 7 -6 8 -1 10 18 5 21 -5 26 -3 26 12 0 17 1 16 14 -1 14
-19 15 -19 50 -2z m1540 9 c3 -5 -1 -26 -9 -48 -12 -33 -21 -39 -16 -11 0 4
-12 7 -29 7 -25 0 -30 4 -30 24 0 24 5 27 67 35 6 0 14 -3 17 -7z m-1835 -703
c41 -53 35 -194 -9 -222 -11 -6 -20 -17 -20 -23 0 -6 -11 -16 -24 -22 -41 -18
-49 3 -40 110 3 51 11 104 17 118 5 14 9 35 8 48 -2 19 2 22 23 20 14 -2 34
-15 45 -29z m258 -685 c-3 -3 -12 -4 -19 -1 -8 3 -5 6 6 6 11 1 17 -2 13 -5z
m-917 -1578 c0 -8 10 -16 22 -18 12 -2 24 -10 26 -18 4 -12 3 -13 -10 -3 -19
17 -30 6 -18 -18 8 -13 6 -20 -7 -28 -14 -8 -6 -10 34 -8 28 1 49 -1 47 -5 -3
-5 2 -8 10 -8 9 0 16 -4 16 -10 0 -5 -4 -10 -8 -10 -4 0 -15 -13 -24 -28 -10
-16 -36 -41 -58 -57 -22 -16 -39 -34 -36 -41 3 -7 -6 -20 -19 -28 -13 -9 -43
-34 -67 -57 -24 -23 -72 -65 -108 -94 -36 -29 -95 -82 -132 -118 -67 -66 -203
-154 -268 -175 -86 -28 -295 -61 -405 -64 -129 -4 -266 25 -279 59 -9 23 -5
24 55 13 126 -23 369 -9 369 21 0 5 5 8 12 6 6 -1 14 6 16 16 2 12 -3 17 -17
17 -11 0 -23 5 -26 10 -3 6 -14 10 -24 10 -10 0 -21 9 -24 20 -3 11 -10 19
-15 18 -16 -5 -102 88 -102 111 0 11 9 38 20 58 l19 36 -24 21 c-20 17 -25 31
-25 67 0 24 -9 62 -19 83 -21 40 -19 106 3 106 6 0 19 9 28 19 9 10 35 22 59
26 24 4 53 13 64 20 12 8 48 11 94 10 41 -2 85 1 98 6 13 5 23 5 23 0 0 -12
174 -30 181 -18 4 5 9 5 13 -2 11 -17 34 -13 39 7 3 12 5 9 6 -8 1 -21 3 -23
14 -10 14 17 147 22 147 5 0 -5 5 -3 10 5 7 11 12 12 21 3 9 -9 19 -7 44 7 18
10 59 21 91 25 33 4 68 14 79 21 25 18 55 18 55 0z m-684 -1449 c4 -4 2 -7 -4
-7 -7 0 -12 -12 -12 -26 0 -22 -3 -24 -14 -15 -8 7 -23 11 -32 9 -11 -2 -20 4
-22 15 -2 10 3 17 12 17 9 0 16 5 16 10 0 11 45 9 56 -3z m117 -4 c-7 -2 -13
-11 -13 -18 0 -7 -10 -15 -22 -19 -19 -5 -21 -8 -8 -16 13 -9 13 -11 0 -20
-21 -14 -40 -12 -36 3 3 6 7 24 10 39 6 25 22 34 66 36 10 0 11 -1 3 -5z
m1224 -217 c12 -13 18 -27 15 -31 -4 -4 8 -4 25 0 28 5 32 4 27 -9 -3 -9 0
-23 7 -32 11 -14 11 -18 -2 -28 -9 -6 -19 -33 -23 -59 -5 -35 -21 -65 -58
-115 -72 -97 -96 -154 -97 -232 0 -36 -5 -66 -10 -68 -6 -2 -11 -8 -11 -13 0
-6 -10 -23 -21 -38 -12 -16 -19 -34 -15 -39 3 -5 -1 -13 -10 -16 -8 -3 -12
-10 -9 -16 12 -20 -71 -112 -272 -302 -118 -111 -186 -137 -189 -73 -1 17 -5
51 -9 77 -6 35 -4 51 9 69 21 31 20 46 -4 66 -21 18 -27 58 -10 68 6 3 14 -4
19 -17 8 -21 10 -21 16 -4 5 11 3 22 -6 28 -11 7 -11 11 -1 15 6 2 12 13 12
24 0 10 6 19 14 19 8 0 16 7 20 15 3 9 0 15 -8 15 -8 0 -16 7 -20 15 -3 9 0
15 10 15 8 0 20 11 26 25 9 19 14 22 21 13 6 -9 7 -5 5 13 -4 21 2 28 34 44
36 17 43 29 40 68 -2 18 54 76 74 77 13 0 24 32 24 73 0 20 5 27 20 27 13 0
20 7 20 20 0 22 15 27 23 8 4 -8 6 -7 6 3 1 9 8 19 16 23 13 5 36 45 39 68 2
13 16 21 16 9 0 -7 4 -10 9 -7 5 3 7 15 4 25 -4 14 8 33 40 63 24 24 47 54 51
66 4 12 13 22 20 22 7 0 23 11 36 25 29 31 51 32 77 1z m-6555 -818 c-9 -9
-12 -7 -12 12 0 19 3 21 12 12 9 -9 9 -15 0 -24z m-48 -3 c3 -8 1 -15 -4 -15
-6 0 -10 7 -10 15 0 8 2 15 4 15 2 0 6 -7 10 -15z"/>
<path d="M7240 10920 c0 -5 5 -10 10 -10 6 0 10 5 10 10 0 6 -4 10 -10 10 -5
0 -10 -4 -10 -10z"/>
<path d="M8849 5528 c-28 -9 -45 -43 -28 -54 12 -7 39 14 39 31 0 8 6 15 13
18 6 2 10 7 7 9 -3 3 -17 1 -31 -4z"/>
<path d="M7160 709 c0 -5 5 -7 10 -4 6 3 10 8 10 11 0 2 -4 4 -10 4 -5 0 -10
-5 -10 -11z"/>
<path d="M8114 11901 c8 -12 55 -20 61 -11 3 4 -5 10 -18 14 -32 8 -49 7 -43
-3z"/>
<path d="M5700 11850 c0 -5 4 -10 9 -10 6 0 13 5 16 10 3 6 -1 10 -9 10 -9 0
-16 -4 -16 -10z"/>
<path d="M7291 11814 c0 -11 3 -14 6 -6 3 7 2 16 -1 19 -3 4 -6 -2 -5 -13z"/>
<path d="M10671 8554 c0 -11 3 -14 6 -6 3 7 2 16 -1 19 -3 4 -6 -2 -5 -13z"/>
<path d="M5668 7853 c7 -3 16 -2 19 1 4 3 -2 6 -13 5 -11 0 -14 -3 -6 -6z"/>
<path d="M6252 7748 c-14 -14 -16 -28 -3 -28 5 0 11 9 14 20 6 23 5 24 -11 8z"/>
<path d="M6140 7730 c-12 -8 -9 -10 13 -10 16 0 26 4 22 10 -8 12 -16 12 -35
0z"/>
<path d="M6075 7710 c-8 -13 5 -13 25 0 13 8 13 10 -2 10 -9 0 -20 -4 -23 -10z"/>
<path d="M6400 7700 c0 -5 -10 -10 -22 -10 -12 0 -19 -3 -15 -6 9 -9 57 5 57
16 0 6 -4 10 -10 10 -5 0 -10 -4 -10 -10z"/>
<path d="M6454 7680 c-12 -5 -25 -13 -29 -19 -10 -18 18 -12 45 9 26 21 20 25
-16 10z"/>
<path d="M6028 7673 c6 -2 18 -2 25 0 6 3 1 5 -13 5 -14 0 -19 -2 -12 -5z"/>
<path d="M6075 7670 c-3 -6 1 -7 9 -4 18 7 21 14 7 14 -6 0 -13 -4 -16 -10z"/>
<path d="M6288 7665 c-3 -3 -34 -8 -68 -10 -40 -2 -69 -10 -81 -21 -17 -15
-21 -15 -36 -3 -13 10 -33 13 -68 9 -41 -5 -45 -7 -25 -13 14 -3 36 -8 49 -9
14 -2 26 -9 29 -16 2 -8 -3 -10 -15 -6 -15 5 -15 4 -3 -5 19 -13 85 -5 130 16
19 9 45 17 57 18 25 1 73 45 50 45 -7 0 -16 -2 -19 -5z"/>
<path d="M6274 7590 c-11 -11 -34 -18 -99 -29 -31 -5 -35 -8 -20 -13 29 -9
105 -7 99 3 -3 5 10 9 29 9 25 0 36 5 39 18 4 13 -1 18 -17 20 -12 1 -26 -3
-31 -8z"/>
<path d="M6070 7560 c0 -5 10 -10 23 -10 18 0 19 2 7 10 -19 13 -30 13 -30 0z"/>
<path d="M6464 7558 c-7 -11 18 -10 36 2 11 7 10 9 -8 7 -13 -1 -26 -5 -28 -9z"/>
<path d="M6288 7543 c6 -2 18 -2 25 0 6 3 1 5 -13 5 -14 0 -19 -2 -12 -5z"/>
<path d="M6380 7530 c-11 -7 -6 -10 22 -10 20 0 40 5 43 10 8 13 -45 13 -65 0z"/>
<path d="M6538 7533 c7 -3 16 -2 19 1 4 3 -2 6 -13 5 -11 0 -14 -3 -6 -6z"/>
<path d="M6323 7523 c9 -2 23 -2 30 0 6 3 -1 5 -18 5 -16 0 -22 -2 -12 -5z"/>
<path d="M6360 7490 l-35 -7 35 -2 c19 0 42 4 50 9 13 9 13 10 0 9 -8 -1 -31
-5 -50 -9z"/>
<path d="M6198 7473 c7 -3 16 -2 19 1 4 3 -2 6 -13 5 -11 0 -14 -3 -6 -6z"/>
<path d="M6258 7473 c12 -2 32 -2 45 0 12 2 2 4 -23 4 -25 0 -35 -2 -22 -4z"/>
<path d="M6455 7460 c-16 -7 -17 -9 -3 -9 9 -1 20 4 23 9 7 11 7 11 -20 0z"/>
<path d="M6530 7430 c0 -5 -28 -11 -62 -13 l-63 -3 63 -2 c45 -1 68 2 78 13
14 13 14 15 0 15 -9 0 -16 -4 -16 -10z"/>
<path d="M6281 7416 c2 -2 18 -6 34 -10 22 -5 26 -4 15 4 -14 9 -59 15 -49 6z"/>
<path d="M6630 7411 c12 -8 6 -11 -25 -11 -23 0 -45 -4 -50 -8 -6 -5 -36 -14
-67 -21 -32 -7 -58 -17 -58 -23 0 -6 11 -8 26 -4 24 6 25 5 11 -9 -18 -17 -78
-20 -94 -4 -7 7 -13 8 -17 0 -4 -6 7 -14 26 -20 18 -5 25 -10 16 -10 -27 -1
-22 -20 7 -27 14 -3 25 -12 25 -18 0 -7 23 -23 50 -35 40 -18 54 -20 65 -11
15 13 39 4 30 -11 -4 -5 2 -9 13 -9 11 0 36 -13 56 -29 21 -17 58 -38 84 -48
26 -9 53 -23 60 -29 6 -7 22 -16 35 -19 25 -7 30 -9 140 -59 42 -20 86 -36 97
-36 11 0 20 -4 20 -9 0 -5 14 -11 30 -14 18 -4 30 -13 30 -22 0 -9 11 -20 25
-25 13 -5 34 -19 46 -31 27 -27 103 -33 138 -10 22 14 22 15 5 29 -14 10 -15
16 -6 19 21 8 13 21 -10 16 -17 -3 -19 -2 -9 5 11 8 9 12 -8 22 -14 7 -20 17
-17 27 8 20 -29 80 -54 88 -11 4 -20 10 -20 15 0 11 -59 45 -93 53 -14 4 -31
16 -37 27 -6 11 -17 20 -24 20 -8 0 -19 6 -25 14 -7 8 -31 18 -54 21 -58 10
-81 24 -42 26 l30 1 -30 9 c-16 4 -42 19 -56 32 -15 15 -43 27 -70 30 -80 11
-119 20 -124 27 -2 4 9 7 26 8 41 1 48 9 15 18 -15 3 -25 12 -23 18 3 8 -4 11
-24 8 -16 -2 -29 -9 -29 -15 0 -6 -3 -7 -6 -4 -4 4 -1 13 6 22 10 12 10 15 -3
15 -8 0 -24 3 -34 6 -15 5 -15 4 -3 -5z m-131 -127 c2 -2 -7 -4 -22 -4 -14 0
-29 5 -32 10 -6 10 42 4 54 -6z"/>
<path d="M6378 7403 c7 -3 16 -2 19 1 4 3 -2 6 -13 5 -11 0 -14 -3 -6 -6z"/>
<path d="M6840 7330 c0 -5 4 -10 9 -10 6 0 13 5 16 10 3 6 -1 10 -9 10 -9 0
-16 -4 -16 -10z"/>
<path d="M5890 7100 c0 -15 35 -29 50 -20 11 7 8 11 -13 19 -35 13 -37 13 -37
1z"/>
<path d="M8610 7020 c0 -5 7 -10 15 -10 8 0 15 5 15 10 0 6 -7 10 -15 10 -8 0
-15 -4 -15 -10z"/>
<path d="M6867 6990 c-3 -11 -1 -20 4 -20 5 0 9 9 9 20 0 11 -2 20 -4 20 -2 0
-6 -9 -9 -20z"/>
<path d="M8625 6991 c-3 -5 -1 -12 5 -16 5 -3 10 1 10 9 0 18 -6 21 -15 7z"/>
<path d="M6844 6935 c-4 -14 -9 -24 -12 -21 -3 3 -11 1 -19 -5 -10 -9 -13 -7
-13 10 0 11 -4 21 -8 21 -10 0 -52 -56 -52 -69 0 -5 -10 -17 -22 -26 -13 -8
-23 -19 -23 -23 0 -9 -49 -8 -97 2 -27 6 -38 5 -38 -4 0 -16 -26 -40 -43 -40
-7 0 -17 -3 -21 -7 -13 -14 -52 -11 -103 8 -71 25 -197 89 -260 132 -43 29
-53 32 -56 18 -2 -9 0 -27 5 -40 5 -13 6 -32 2 -43 -5 -17 -2 -19 14 -14 15 5
25 -1 41 -23 12 -16 21 -35 21 -43 0 -7 17 -22 37 -33 21 -11 53 -35 71 -52
18 -18 42 -33 52 -33 11 0 20 -7 20 -15 0 -10 10 -15 30 -15 17 0 30 -4 30 -9
0 -5 3 -16 6 -25 5 -13 -1 -16 -26 -16 -17 0 -39 4 -48 9 -9 5 -39 11 -67 15
-54 6 -58 9 51 -40 174 -79 306 -96 404 -52 30 14 64 36 75 48 11 13 14 20 8
16 -7 -4 -13 -3 -13 3 0 6 16 13 35 17 20 3 40 15 46 26 9 17 13 18 32 5 26
-17 52 -9 93 25 47 41 65 63 54 66 -6 2 -4 10 7 18 15 11 16 15 4 23 -7 5 -11
14 -7 19 8 14 -11 49 -46 84 -17 17 -22 29 -15 32 9 3 9 5 0 5 -7 1 -13 10
-13 22 0 17 -4 19 -22 13 -46 -15 -93 -2 -84 22 3 8 -1 14 -9 14 -8 0 -17 -11
-21 -25z"/>
<path d="M6095 5601 c-3 -5 -1 -12 4 -15 5 -3 11 1 15 9 6 16 -9 21 -19 6z"/>
<path d="M6055 5590 c-3 -5 1 -10 9 -10 9 0 16 5 16 10 0 6 -4 10 -9 10 -6 0
-13 -4 -16 -10z"/>
<path d="M6230 4813 c-13 -15 -12 -16 4 -10 10 4 22 7 27 7 6 0 7 5 4 10 -9
14 -18 12 -35 -7z"/>
<path d="M5190 4215 c0 -8 7 -15 16 -15 14 0 14 3 4 15 -7 8 -14 15 -16 15 -2
0 -4 -7 -4 -15z"/>
<path d="M7361 3904 c0 -11 3 -14 6 -6 3 7 2 16 -1 19 -3 4 -6 -2 -5 -13z"/>
</g>
</svg>
