<svg xmlns="http://www.w3.org/2000/svg" width="47.57" height="18.4" viewBox="0 0 47.57 18.4">
	<defs>
		<style>.cls-1{fill:#003082;}</style>
	</defs>
	<title>greAsset 7</title>
	<g>
		<path class="cls-1" d="M13.51,17.41A16.61,16.61,0,0,1,8,18.4a8.27,8.27,0,0,1-6-2.09A7.51,7.51,0,0,1,0,10.86,10.88,10.88,0,0,1,3.61,2.65,11.79,11.79,0,0,1,11.32,0a11.12,11.12,0,0,1,4.55.8l-1,2.62a9.27,9.27,0,0,0-3.82-.75A7.65,7.65,0,0,0,6,4.47,8.29,8.29,0,0,0,3.4,10.65c0,3.24,1.77,5.11,5.14,5.11a6.08,6.08,0,0,0,2.33-.4l.86-4.52H8.53L9,8.32h6.23Z"/><path class="cls-1" d="M19.77.48A21.26,21.26,0,0,1,24.18.05,7.83,7.83,0,0,1,28.73,1.2a4,4,0,0,1,1.69,3.29,5.41,5.41,0,0,1-4.17,5.16v.08c1.15.46,1.69,1.71,1.85,3.42a35.17,35.17,0,0,0,.62,5.05H25.49c-.11-.43-.29-2.14-.45-4.31s-1-3.13-2.62-3.13H20.89l-1.42,7.44h-3.1Zm1.58,7.94h1.77c2.41,0,4.07-1.52,4.07-3.48,0-1.69-1.31-2.43-3.08-2.43a6.3,6.3,0,0,0-1.68.16Z"/><path class="cls-1" d="M41.94,10.19H35.47l-1,5.38h7.28l-.51,2.65H30.82l3.42-18h10l-.51,2.65H36.86L36,7.57h6.5Z"/><path class="cls-1" d="M46.95,17.51a2.13,2.13,0,1,1-3-3,2.13,2.13,0,1,1,3,3Zm-2.8-2.81a1.83,1.83,0,1,0,1.3-.54A1.77,1.77,0,0,0,44.14,14.7Zm1.25.12a1.81,1.81,0,0,1,.64.08.58.58,0,0,1,.36.59.51.51,0,0,1-.23.46.89.89,0,0,1-.34.11.57.57,0,0,1,.4.23.64.64,0,0,1,.13.36v.17c0,.05,0,.11,0,.17a.38.38,0,0,0,0,.12v0H46v-.31a.57.57,0,0,0-.22-.54,1,1,0,0,0-.46-.07H45v.92h-.41V14.82Zm.45.37a1.07,1.07,0,0,0-.5-.09H45V16h.37a1.11,1.11,0,0,0,.39-.05.42.42,0,0,0,.09-.71Z"/>
	</g>
</svg>