<?xml version="1.0" standalone="no"?>
<!DOCTYPE svg PUBLIC "-//W3C//DTD SVG 20010904//EN"
 "http://www.w3.org/TR/2001/REC-SVG-20010904/DTD/svg10.dtd">
<svg version="1.0" xmlns="http://www.w3.org/2000/svg"
 width="1280.000000pt" height="1280.000000pt" viewBox="0 0 1280.000000 1280.000000"
 preserveAspectRatio="xMidYMid meet">
<metadata>
Created by potrace 1.11, written by Peter Selinger 2001-2013
</metadata>
<g transform="translate(0.000000,1280.000000) scale(0.100000,-0.100000)"
fill="#000000" stroke="none">
<path d="M6813 12554 c3 -4 46 -8 94 -9 57 -2 77 0 58 5 -36 9 -161 13 -152 4z"/>
<path d="M6778 12543 c7 -3 16 -2 19 1 4 3 -2 6 -13 5 -11 0 -14 -3 -6 -6z"/>
<path d="M7119 12499 c35 -16 66 -27 68 -25 6 6 -99 56 -116 56 -9 -1 13 -14
48 -31z"/>
<path d="M6145 12029 c-57 -5 -125 -19 -185 -38 -104 -34 -128 -46 -117 -57 8
-9 106 14 124 28 24 19 119 37 233 44 111 6 122 5 194 -20 65 -22 103 -31 148
-35 10 -1 103 -92 104 -103 1 -4 2 -14 3 -22 0 -7 14 -16 30 -19 22 -5 31 -13
36 -36 4 -17 11 -34 17 -37 7 -5 8 -2 3 7 -8 12 -6 12 8 0 26 -21 20 -32 -10
-20 -16 6 -48 13 -73 15 -24 3 -47 9 -50 14 -3 5 -23 9 -45 8 -22 -1 -41 4
-43 10 -4 14 -29 16 -34 3 -1 -5 -64 -12 -138 -15 -169 -6 -212 -12 -253 -30
-18 -8 -68 -22 -112 -32 -44 -9 -87 -23 -95 -29 -18 -14 -80 -45 -91 -45 -4 0
-37 -13 -72 -30 -36 -16 -69 -30 -74 -30 -4 0 -34 -12 -65 -27 -43 -21 -58
-33 -58 -50 0 -16 -5 -20 -20 -16 -13 3 -27 -2 -38 -14 -9 -11 -22 -18 -28
-16 -6 2 -17 -3 -24 -12 -10 -12 -10 -15 4 -15 9 0 16 -4 16 -9 0 -13 -31 -24
-61 -22 -28 2 -59 -21 -59 -45 0 -8 -7 -14 -15 -14 -8 0 -25 -20 -37 -45 -12
-24 -26 -41 -31 -38 -6 3 -7 1 -3 -5 6 -10 -99 -122 -114 -122 -4 0 -13 -11
-20 -25 -7 -14 -19 -25 -25 -25 -6 0 -17 -10 -24 -22 -7 -13 -29 -35 -50 -50
-21 -15 -38 -33 -38 -40 0 -7 -4 -20 -7 -29 -4 -10 -1 -23 9 -32 14 -14 13
-18 -10 -43 -14 -15 -25 -31 -25 -37 0 -5 -10 -18 -22 -28 -11 -11 -17 -19
-13 -19 5 0 -1 -11 -14 -24 -16 -17 -21 -32 -18 -59 3 -30 0 -39 -24 -57 -16
-11 -29 -27 -29 -34 0 -8 -7 -17 -16 -20 -8 -3 -12 -10 -9 -16 3 -6 -4 -14
-17 -19 -13 -6 -18 -10 -13 -11 6 -1 -1 -5 -15 -9 -21 -6 -25 -13 -23 -44 1
-26 -3 -37 -13 -37 -8 0 -17 -14 -21 -32 -8 -35 -8 -35 2 -60 4 -11 0 -18 -15
-23 -34 -11 -57 -39 -64 -79 -4 -20 -17 -46 -29 -58 -12 -13 -29 -43 -36 -68
-7 -25 -22 -62 -33 -84 -11 -21 -18 -50 -15 -63 2 -13 -2 -31 -10 -39 -8 -8
-13 -22 -11 -31 3 -18 -35 -63 -54 -63 -7 0 -3 -7 8 -15 14 -11 15 -14 4 -15
-10 0 -11 -3 -4 -8 21 -13 19 -47 -4 -76 -12 -16 -22 -36 -22 -44 0 -15 -36
-68 -73 -107 -48 -51 -68 -111 -40 -118 17 -4 17 -5 0 -6 -13 -1 -18 -8 -16
-23 1 -13 -3 -36 -10 -52 -6 -16 -9 -31 -7 -34 3 -2 -1 -17 -9 -33 -8 -15 -15
-36 -15 -47 0 -10 -11 -29 -25 -42 -14 -13 -25 -31 -25 -41 0 -10 -5 -21 -10
-24 -6 -4 -9 -18 -8 -33 2 -20 -3 -29 -25 -40 -20 -10 -26 -19 -22 -32 5 -16
-17 -36 -37 -32 -5 1 -8 -6 -9 -16 0 -10 -3 -12 -6 -4 -7 17 -23 15 -23 -4 0
-8 -4 -12 -10 -9 -5 3 -10 1 -10 -4 0 -6 7 -11 15 -11 22 0 18 -17 -7 -35 -19
-13 -20 -17 -9 -24 9 -6 14 -26 14 -54 -1 -33 4 -50 18 -63 14 -13 16 -20 8
-30 -6 -7 -8 -18 -5 -23 4 -6 -4 -17 -17 -25 -26 -18 -29 -65 -5 -94 8 -9 19
-29 26 -44 9 -23 18 -28 47 -28 28 0 37 -5 50 -30 20 -38 16 -167 -6 -181 -8
-5 -10 -9 -5 -9 6 0 5 -5 -1 -11 -8 -8 -17 -5 -32 10 -26 26 -37 27 -44 1 -3
-11 -1 -20 4 -20 5 0 9 -12 9 -26 0 -14 4 -22 10 -19 6 3 7 -1 4 -9 -4 -11 0
-16 14 -16 23 0 46 -25 37 -40 -4 -6 9 -17 29 -25 29 -12 35 -20 34 -41 -2
-15 -8 -29 -15 -31 -22 -9 -15 -30 39 -108 32 -47 66 -84 90 -97 20 -12 35
-25 32 -30 -3 -4 -1 -8 5 -8 5 0 16 -6 23 -13 7 -8 27 -20 43 -28 26 -12 31
-22 38 -69 5 -30 6 -74 3 -97 -5 -36 -3 -43 12 -44 21 0 106 -106 105 -130 -2
-24 59 -59 108 -61 44 -1 54 -23 17 -37 l-23 -8 25 -8 c14 -4 32 -13 40 -20
51 -41 75 -21 148 130 67 135 134 210 197 219 24 4 48 13 55 20 6 8 27 17 48
21 50 9 99 32 147 70 22 17 66 48 97 70 l58 38 61 -17 c34 -9 63 -15 65 -13 2
1 -12 11 -31 22 -43 22 -45 35 -5 35 30 0 135 -35 157 -52 7 -5 17 -7 23 -3 5
3 17 0 25 -9 11 -11 12 -16 2 -19 -6 -3 11 -6 38 -6 28 -1 70 -6 95 -13 25 -6
60 -10 78 -9 19 1 47 -5 64 -13 19 -10 36 -12 47 -7 17 9 141 15 141 7 0 -2
-16 -14 -35 -26 -19 -12 -35 -27 -35 -33 0 -9 2 -9 8 0 9 15 131 71 171 79 20
4 31 2 31 -5 0 -6 -7 -11 -15 -11 -8 0 -15 -9 -15 -19 0 -11 -8 -22 -17 -24
-10 -3 -3 -5 15 -6 19 0 31 3 27 8 -3 6 10 13 30 17 19 3 38 10 41 15 3 5 22
9 44 9 33 0 37 -3 33 -20 -3 -10 -11 -24 -18 -30 -8 -6 -11 -18 -8 -26 3 -8
-1 -14 -8 -14 -7 0 -10 -3 -6 -6 3 -3 38 10 78 30 45 23 86 36 110 36 38 0 39
-1 39 -38 0 -21 -5 -43 -11 -49 -8 -8 -5 -14 11 -23 12 -7 20 -8 17 -3 -3 4 2
14 10 22 13 12 14 11 8 -8 -5 -16 -2 -21 10 -21 11 0 16 8 15 23 -4 43 0 67
10 67 6 0 11 -20 10 -47 -1 -57 23 -162 33 -146 4 7 5 29 1 50 -4 27 0 52 15
85 12 28 16 50 11 53 -12 7 -13 55 -2 72 7 10 12 10 25 0 15 -11 15 -15 2 -40
-13 -25 -13 -31 1 -53 23 -33 32 -30 32 12 0 41 28 77 54 71 11 -3 24 3 33 16
8 12 15 18 15 14 0 -4 9 -3 20 3 11 6 18 15 15 19 -2 5 2 14 9 20 19 16 30 -2
22 -35 -6 -21 -3 -25 11 -22 10 2 22 12 28 23 29 57 67 79 93 53 15 -15 15 -6
0 27 -8 18 -9 29 -2 33 6 4 16 16 22 27 10 17 11 18 12 3 0 -23 42 -24 64 -3
9 9 17 11 21 5 3 -5 15 -10 25 -10 11 0 35 -7 53 -16 33 -16 34 -18 25 -51 -5
-19 -7 -37 -4 -40 3 -3 -1 -15 -9 -27 -8 -11 -15 -28 -15 -37 0 -9 -7 -22 -15
-29 -11 -9 -13 -16 -6 -23 7 -7 25 5 53 37 34 36 48 45 63 40 15 -6 17 -4 12
10 -4 9 -3 15 2 11 15 -9 43 7 37 21 -3 8 0 11 10 7 7 -3 14 -1 14 5 0 13 35
21 51 11 8 -5 20 -3 29 5 17 14 60 19 60 6 0 -4 -6 -11 -12 -13 -8 -3 -6 -6 4
-6 9 -1 21 6 26 16 6 9 16 14 25 10 9 -3 19 -1 23 4 3 6 17 8 30 5 18 -5 22
-3 18 8 -3 8 -1 17 5 21 6 3 12 -2 12 -12 4 -43 6 -69 9 -78 1 -5 1 -20 0 -32
-2 -28 16 -30 23 -3 9 36 33 13 30 -30 -2 -41 18 -57 31 -24 10 26 7 36 -9 30
-12 -4 -13 -2 -2 14 6 11 15 20 20 20 4 0 6 -4 3 -8 -2 -4 0 -14 5 -22 8 -13
10 -13 18 0 6 8 12 12 14 10 15 -19 50 -101 54 -125 6 -44 12 -57 22 -50 6 3
8 -4 6 -15 -4 -21 13 -43 47 -61 19 -10 20 -9 14 15 -21 87 -21 82 -1 66 17
-14 17 -14 7 7 -16 29 -9 67 13 72 13 2 16 -1 12 -13 -3 -8 -2 -18 4 -21 5 -4
6 -12 3 -18 -4 -7 -4 -9 0 -5 5 4 19 -4 33 -18 13 -13 28 -24 33 -24 6 0 10
-13 10 -29 0 -16 7 -34 15 -41 8 -7 15 -25 15 -41 0 -19 5 -29 14 -29 25 0 27
17 6 55 -11 19 -20 42 -20 49 0 8 -6 17 -12 19 -9 4 -7 6 3 6 9 1 24 -10 35
-23 10 -14 22 -22 27 -19 6 3 7 1 4 -4 -4 -6 4 -22 18 -34 27 -26 32 -45 13
-52 -8 -3 -6 -6 4 -6 12 -1 15 -6 11 -17 -3 -9 0 -20 7 -24 9 -6 10 -12 2 -26
-10 -17 -12 -16 -18 14 -3 17 -13 32 -20 32 -10 0 -13 -8 -10 -22 7 -36 17
-58 27 -58 5 0 14 -11 19 -25 8 -21 14 -24 34 -19 19 4 32 -1 51 -20 14 -14
30 -26 35 -26 8 0 40 -89 40 -112 0 -4 -11 -2 -25 4 -35 16 -41 4 -16 -28 11
-15 21 -32 21 -38 0 -7 13 -25 29 -40 24 -23 29 -25 26 -10 -2 11 -4 21 -5 24
-1 3 -2 8 -1 13 0 4 -3 7 -9 7 -5 0 -14 9 -19 19 -9 17 -8 18 12 14 34 -9 60
-35 45 -45 -10 -6 -10 -8 0 -8 7 0 11 -4 8 -9 -3 -5 1 -14 9 -21 14 -11 14
-10 6 13 -6 15 -7 29 -2 31 13 8 21 -5 21 -34 0 -15 7 -33 15 -40 22 -18 19
-82 -6 -114 -11 -14 -18 -27 -15 -27 3 -1 11 -3 16 -4 6 -1 15 -3 20 -4 6 0
10 -5 10 -11 0 -5 -3 -9 -7 -9 -23 4 -43 -2 -38 -11 3 -5 3 -10 -2 -11 -48 -4
-78 -18 -56 -26 20 -7 -26 -45 -50 -41 -12 1 -27 -1 -34 -5 -6 -4 -14 -3 -18
3 -6 10 -100 4 -150 -10 -16 -5 -60 -12 -96 -15 -37 -3 -80 -10 -97 -14 -16
-5 -42 -6 -57 -3 -19 3 -30 0 -37 -12 -6 -11 -16 -15 -28 -11 -10 3 -21 1 -25
-5 -3 -5 -15 -10 -26 -10 -11 0 -17 -4 -14 -10 3 -5 0 -8 -7 -5 -41 14 -68 13
-78 -4 -11 -21 -47 -34 -52 -19 -3 7 -11 7 -26 -1 -12 -7 -28 -9 -34 -5 -7 4
-8 3 -4 -4 4 -7 2 -12 -3 -12 -6 0 -11 10 -12 23 0 15 -2 17 -6 7 -9 -24 -26
-30 -58 -24 -16 4 -27 3 -23 -1 4 -5 3 -14 -2 -20 -7 -8 -4 -18 10 -30 21 -19
27 -45 11 -45 -5 0 -15 -15 -21 -34 -6 -19 -18 -37 -26 -40 -8 -3 -14 -14 -12
-24 2 -11 -3 -26 -10 -35 -7 -8 -15 -28 -18 -44 -3 -15 -19 -68 -36 -118 -28
-83 -31 -102 -34 -245 -1 -85 -7 -184 -13 -220 -8 -52 -9 -249 -1 -270 1 -3 2
-8 1 -12 0 -4 4 -20 11 -35 6 -15 12 -48 14 -73 1 -25 5 -58 9 -75 3 -16 8
-63 10 -103 3 -57 0 -74 -11 -79 -8 -3 -14 -10 -14 -15 0 -31 -175 -148 -220
-148 -7 0 -18 -7 -24 -15 -17 -24 -122 -40 -246 -37 l-85 1 -55 60 c-77 85
-130 99 -130 35 0 -12 -6 -24 -13 -27 -14 -5 -47 -67 -51 -95 -2 -8 -10 -20
-19 -27 -9 -7 -17 -16 -17 -22 0 -18 25 -63 36 -63 6 0 26 -15 46 -34 47 -45
93 -60 152 -46 41 9 49 8 68 -10 12 -11 30 -22 40 -26 10 -3 30 -16 43 -30 23
-23 23 -24 5 -34 -25 -13 -33 -13 -24 2 5 7 3 8 -6 3 -6 -4 -42 -7 -78 -6 -40
1 -73 -4 -86 -12 -32 -21 -86 -37 -86 -26 0 5 -8 9 -19 9 -11 0 -25 13 -35 33
-11 25 -26 37 -58 47 -24 7 -53 19 -64 26 -30 18 -134 54 -157 54 -10 0 -30 9
-44 20 -20 15 -29 17 -39 9 -10 -8 -14 -8 -14 0 0 6 -7 11 -16 11 -8 0 -13 4
-10 9 10 15 -33 20 -45 5 -9 -11 -1 -18 43 -38 29 -13 60 -31 67 -40 7 -9 20
-16 29 -16 8 0 34 -16 58 -35 23 -19 45 -35 47 -35 3 0 27 -15 55 -33 50 -34
224 -107 254 -107 24 0 29 -14 14 -36 -11 -14 -26 -19 -63 -18 -67 0 -89 7
-117 33 -17 16 -32 22 -47 18 -68 -18 -232 59 -244 114 -4 18 -13 29 -23 29
-30 1 -95 48 -123 90 -23 34 -27 50 -24 86 l5 43 -83 40 c-109 53 -191 116
-178 139 7 12 5 22 -5 34 -14 15 -13 17 5 23 16 5 21 14 19 35 -2 24 -8 30
-34 35 -18 3 -34 11 -36 17 -3 9 -18 7 -54 -7 -27 -11 -60 -21 -72 -23 -30 -4
-132 -61 -132 -73 0 -5 -6 -9 -14 -9 -8 0 -17 -4 -20 -9 -10 -15 12 -61 28
-61 8 0 16 -5 18 -11 4 -12 67 -14 138 -4 44 6 48 5 85 -33 57 -57 68 -72 82
-104 11 -25 16 -28 45 -23 18 3 34 8 37 10 6 7 41 -15 41 -26 0 -10 34 -49
120 -138 19 -20 58 -65 87 -101 81 -102 170 -180 205 -180 7 0 25 -11 39 -24
17 -15 34 -23 46 -20 11 3 36 -3 55 -14 20 -12 40 -17 48 -12 28 18 150 -8
150 -32 0 -4 18 -8 39 -8 29 0 44 -6 54 -21 8 -11 21 -20 28 -19 26 4 40 0 34
-9 -3 -5 -1 -12 5 -16 33 -20 -14 -79 -55 -69 -13 3 -29 -1 -38 -11 -9 -9 -21
-14 -27 -10 -5 3 -20 0 -32 -7 -13 -7 -29 -11 -37 -9 -7 1 -10 -2 -6 -9 5 -8
-23 -11 -101 -9 -60 1 -114 0 -120 -2 -6 -2 -33 10 -60 27 -27 18 -70 35 -97
38 -52 8 -76 12 -119 21 -39 9 -47 -14 -14 -42 15 -13 31 -21 35 -18 11 6 51
-33 51 -49 0 -8 14 -19 30 -25 17 -5 30 -14 30 -18 0 -12 62 -44 88 -46 12 -1
22 -4 22 -8 0 -9 41 -18 101 -23 25 -2 63 -9 83 -16 20 -6 43 -9 51 -6 7 2 15
1 17 -4 2 -6 17 -3 33 6 17 8 52 18 79 21 28 4 61 12 75 20 15 7 34 13 43 13
10 0 23 9 30 20 7 11 17 20 21 20 5 0 15 7 23 15 19 19 34 19 34 0 0 -9 6 -12
15 -9 8 4 13 10 10 14 -3 5 0 12 6 16 8 4 9 3 5 -4 -4 -7 -3 -12 1 -12 18 0
43 26 48 48 2 12 10 28 17 35 7 8 24 28 38 45 14 18 33 32 43 32 9 0 17 5 17
11 0 7 15 9 40 6 21 -2 38 -1 37 3 -4 14 46 69 57 63 6 -4 5 0 -2 9 -10 13
-10 17 0 21 7 2 16 4 19 3 3 0 13 5 22 12 13 11 19 11 36 0 17 -11 26 -10 53
4 32 16 104 18 127 4 6 -4 11 -4 11 1 0 4 5 1 10 -7 8 -13 10 -12 10 3 0 22 6
22 31 -1 11 -11 17 -25 14 -33 -6 -16 -69 -59 -86 -59 -19 0 -69 -41 -69 -56
0 -8 -9 -14 -19 -14 -10 0 -21 -6 -24 -14 -3 -8 -16 -16 -29 -18 -13 -2 -22
-9 -21 -15 2 -9 -11 -11 -42 -9 -41 3 -45 1 -55 -28 -8 -22 -8 -32 0 -34 8 -3
7 -8 -1 -18 -14 -17 -29 -18 -29 -3 0 18 -23 35 -57 42 -26 5 -34 2 -48 -19
-9 -13 -19 -23 -23 -20 -4 2 -7 -13 -8 -34 -1 -33 2 -39 24 -43 22 -4 37 3 76
38 14 13 54 17 61 5 3 -5 0 -12 -6 -16 -8 -4 -9 -3 -5 4 4 7 2 12 -3 12 -6 0
-11 -12 -11 -27 0 -19 -3 -24 -9 -15 -6 10 -10 4 -15 -18 -4 -23 -10 -31 -20
-27 -14 6 -29 -19 -25 -39 4 -17 -15 -47 -50 -80 -59 -54 -131 -105 -141 -99
-5 3 -11 1 -15 -4 -3 -6 -12 -8 -20 -4 -8 3 -15 0 -15 -7 0 -20 -43 -49 -73
-50 -16 0 -26 -4 -22 -10 3 -5 -7 -13 -22 -16 -17 -5 -28 -3 -31 4 -5 16 -28
14 -77 -4 -22 -8 -56 -17 -76 -19 -20 -2 -72 -21 -115 -41 -62 -29 -86 -35
-117 -31 -22 3 -43 11 -47 18 -6 8 -9 6 -11 -6 -4 -17 -6 -17 -19 -4 -23 23
-60 30 -60 12 0 -12 -8 -14 -37 -10 -21 4 -39 11 -41 17 -2 6 -10 16 -17 24
-8 7 -11 17 -7 21 4 5 1 4 -7 0 -11 -6 -13 -4 -8 8 3 10 2 17 -3 17 -13 0 -13
-27 0 -35 11 -7 4 -25 -10 -25 -5 0 -7 6 -5 13 6 13 -39 67 -55 67 -6 0 -10 6
-10 14 0 13 -20 27 -45 31 -5 1 -37 -13 -70 -31 -59 -31 -62 -32 -175 -29
-121 3 -160 15 -216 69 -48 47 -85 76 -95 76 -6 0 -32 21 -59 48 -26 26 -54
52 -61 58 -38 31 -169 178 -169 190 0 8 -6 14 -14 14 -8 0 -24 20 -36 45 -12
25 -26 45 -31 45 -10 0 0 -60 12 -76 5 -6 10 -19 12 -30 1 -10 6 -25 10 -32 9
-13 -8 -35 -33 -45 -12 -4 -12 -6 2 -6 10 -1 22 -10 28 -21 6 -11 21 -23 35
-26 16 -4 27 -17 33 -37 12 -40 11 -80 -2 -89 -13 -9 13 -40 27 -31 6 4 8 -3
3 -21 -3 -14 -2 -26 3 -26 22 0 15 -46 -12 -74 -19 -20 -25 -23 -20 -10 7 18
6 18 -19 2 -19 -13 -29 -15 -34 -6 -5 7 -2 8 7 3 8 -5 10 -4 6 0 -10 11 -39
16 -32 5 3 -4 -4 -10 -15 -13 -15 -4 -20 0 -20 14 0 12 -6 18 -17 17 -44 -3
-65 2 -60 16 4 10 1 13 -8 10 -10 -4 -12 0 -8 17 4 15 2 20 -5 15 -6 -3 -16 2
-22 11 -10 16 -11 16 -6 1 3 -12 1 -15 -9 -12 -8 3 -13 11 -12 17 1 7 -3 11
-9 10 -6 -1 -11 3 -11 10 -1 36 -19 56 -65 73 -10 3 -15 10 -12 15 3 5 0 9 -6
9 -7 0 -10 6 -7 14 4 9 -3 16 -18 20 -13 3 -27 15 -30 26 -3 11 -11 20 -16 20
-5 0 -9 7 -9 15 0 8 -3 15 -7 15 -10 0 -59 71 -56 81 1 4 -4 13 -12 19 -8 7
-15 18 -15 25 0 6 -8 21 -17 33 -10 11 -31 37 -48 58 -16 20 -36 43 -43 50 -7
8 -10 14 -5 14 4 0 3 4 -3 8 -13 8 -64 107 -89 172 -10 25 -23 59 -30 75 -31
75 -79 293 -90 410 -4 39 -13 115 -20 170 -12 89 -12 375 -1 394 2 3 5 31 7
61 1 30 6 60 10 65 4 6 10 30 14 55 3 25 14 81 25 125 10 44 21 101 25 127 3
26 18 68 32 95 27 50 31 76 52 336 6 70 13 133 17 138 12 20 5 262 -8 275 -7
7 -40 15 -73 18 -33 3 -62 5 -64 6 -2 0 0 11 3 24 3 14 1 28 -6 32 -6 4 -8 3
-4 -4 3 -6 2 -13 -4 -17 -20 -13 -9 34 13 52 12 10 23 25 25 33 5 22 44 50 70
50 19 0 22 5 22 43 0 24 -6 50 -12 59 -7 8 -52 40 -99 70 -62 40 -110 82 -171
151 -98 110 -135 179 -141 260 -1 9 -5 17 -9 17 -4 0 -7 3 -6 8 4 14 -82 192
-93 192 -10 0 -29 -61 -28 -90 5 -145 -24 -400 -52 -452 -5 -10 -9 -29 -9 -43
0 -14 -4 -25 -10 -25 -5 0 -10 -10 -10 -22 0 -28 -22 -88 -32 -88 -4 0 -8 -6
-8 -12 0 -7 -12 -35 -26 -63 -13 -27 -23 -58 -21 -67 3 -9 1 -18 -4 -20 -5 -2
-11 -14 -14 -27 -2 -13 -11 -33 -18 -45 -8 -11 -24 -51 -36 -87 -25 -76 -46
-99 -116 -125 -27 -10 -52 -21 -55 -25 -3 -4 -31 -15 -62 -24 -32 -9 -60 -20
-63 -25 -3 -4 -17 -11 -32 -15 -16 -3 -60 -22 -100 -41 -40 -19 -77 -34 -82
-34 -24 0 -178 -83 -213 -115 -22 -19 -44 -35 -48 -35 -5 0 -14 -9 -20 -19
-11 -21 -128 -81 -158 -81 -10 0 -22 -4 -28 -9 -5 -5 -83 -12 -174 -14 -165
-5 -317 -19 -355 -32 -11 -4 -45 -19 -75 -33 -63 -28 -144 -49 -210 -53 -25
-1 -49 -6 -55 -10 -25 -18 -100 -15 -192 7 -54 13 -127 24 -163 24 -57 0 -73
-4 -118 -32 -56 -35 -130 -86 -228 -158 -34 -25 -72 -52 -84 -60 -13 -8 -45
-32 -71 -52 -27 -21 -51 -38 -53 -38 -9 0 -101 -64 -104 -72 -2 -4 -9 -8 -17
-8 -7 0 -18 -7 -25 -15 -7 -8 -21 -15 -31 -15 -11 0 -19 -7 -19 -15 0 -8 -7
-15 -15 -15 -8 0 -15 -4 -15 -9 0 -5 -8 -12 -19 -16 -18 -5 -47 -26 -81 -58
-8 -8 -31 -22 -50 -32 -19 -10 -52 -31 -73 -47 -32 -26 -49 -34 -79 -37 -4 -1
-13 -7 -20 -15 -8 -7 -32 -23 -54 -34 -21 -11 -51 -32 -65 -46 -15 -14 -30
-22 -33 -19 -3 4 -6 1 -6 -5 0 -6 -8 -13 -17 -16 -10 -3 -30 -17 -45 -31 -16
-14 -28 -24 -28 -21 0 3 -15 -10 -32 -30 -18 -19 -50 -51 -70 -71 -21 -20 -35
-40 -32 -45 3 -5 -6 -20 -20 -33 -14 -13 -26 -26 -26 -29 0 -15 -63 -95 -71
-91 -5 4 -9 1 -9 -5 0 -7 -9 -25 -20 -40 -20 -28 -20 -46 -20 -1805 0 -1418 2
-1776 12 -1772 7 2 12 14 10 25 -2 12 1 22 7 22 16 0 7 -36 -15 -61 -10 -12
-13 -19 -6 -15 7 4 12 2 12 -6 0 -10 2 -10 9 1 5 7 13 11 19 7 13 -8 22 17 15
43 -4 17 -2 20 11 15 10 -4 15 -13 12 -20 -9 -24 5 -44 30 -44 29 0 40 -21 25
-48 -7 -14 -18 -18 -36 -15 -13 3 -22 10 -19 15 4 6 -3 5 -15 -2 -23 -12 -19
-35 5 -26 8 3 14 2 14 -3 0 -14 -44 -21 -53 -8 -6 8 -7 6 -3 -6 3 -10 6 -21 6
-23 0 -3 4 -2 10 1 5 3 10 1 10 -4 0 -6 -7 -11 -15 -11 -7 0 -19 -8 -24 -17
-9 -16 -10 -16 -11 -1 0 9 5 18 12 20 8 3 6 7 -5 11 -15 6 -16 -34 -17 -538
l0 -545 2805 0 c2663 0 2806 1 2812 18 10 29 25 44 33 32 4 -6 19 1 39 20 17
17 29 35 26 40 -3 5 15 7 41 6 25 -1 49 -8 54 -16 4 -7 13 -9 19 -6 6 4 11 2
11 -3 0 -6 3 -10 8 -9 8 1 35 -8 69 -24 11 -6 26 -8 31 -4 6 3 13 2 17 -4 3
-5 15 -10 25 -10 10 0 20 -5 22 -10 2 -6 19 -14 38 -17 19 -4 1546 -9 3393
-10 l3357 -3 0 1952 0 1953 -59 90 c-32 50 -77 119 -100 154 -22 36 -53 103
-67 150 -60 198 -171 344 -310 408 -28 13 -86 53 -129 91 -317 275 -461 370
-692 456 -93 35 -188 109 -375 295 -81 80 -171 160 -199 179 -57 39 -29 37
-434 31 -172 -2 -203 0 -325 24 -74 15 -148 29 -165 31 -16 3 -48 9 -70 15
-22 6 -95 9 -163 8 -67 -2 -126 0 -131 3 -23 15 -20 48 9 86 16 21 30 47 30
56 0 21 17 32 23 16 3 -7 6 10 7 37 1 56 24 100 40 75 5 -8 6 -27 3 -42 -3
-17 -1 -28 6 -28 6 0 11 7 11 16 0 19 65 106 74 97 3 -3 6 3 6 14 0 11 3 22 6
26 9 9 64 -21 64 -36 0 -7 5 -4 10 5 9 15 14 14 43 -13 25 -23 33 -26 35 -14
2 8 7 15 12 15 5 0 12 16 16 35 6 33 7 34 27 20 32 -22 35 -19 33 28 -2 23 2
45 8 49 8 5 7 8 -1 8 -7 0 -13 5 -13 11 0 6 7 9 15 5 11 -4 15 2 15 20 0 22 2
24 22 13 18 -10 20 -9 15 5 -4 10 -1 16 7 16 16 0 29 42 16 50 -5 3 -14 19
-19 35 -10 26 -9 28 3 12 19 -24 23 -8 22 75 -1 38 3 68 8 68 4 0 6 7 2 15 -8
21 8 19 29 -5 23 -25 38 -26 30 -1 -9 30 12 74 34 68 17 -4 18 -1 10 27 -11
39 -12 36 6 36 8 0 15 -4 15 -10 0 -5 7 -7 15 -4 8 4 12 11 8 17 -9 14 -12 87
-3 87 3 0 17 -12 29 -26 31 -35 38 -23 12 20 -23 37 -13 58 17 35 9 -8 7 -2
-5 12 -13 14 -23 36 -23 49 0 22 1 23 20 5 20 -18 20 -17 20 15 0 28 2 31 15
20 20 -17 32 -5 15 15 -10 12 -10 15 0 15 10 0 10 3 0 15 -15 19 -6 32 12 17
10 -8 12 -1 10 32 -3 29 1 46 12 55 18 15 22 66 6 76 -6 4 -8 11 -4 16 4 6 14
3 25 -7 18 -16 19 -16 19 11 0 20 4 26 16 21 12 -4 14 -1 9 14 -5 15 -2 20 10
20 14 0 16 6 10 38 -4 20 -12 43 -17 50 -8 9 -8 16 0 24 9 9 17 7 33 -8 l22
-19 -8 30 c-4 17 -7 41 -6 54 0 13 -4 30 -10 37 -6 7 -7 19 -3 26 5 7 10 28
11 47 3 42 8 47 29 30 16 -13 17 -11 11 13 -4 14 -10 34 -14 44 -5 13 -3 16
10 11 9 -3 19 -2 22 3 4 6 -7 10 -24 10 -17 0 -31 5 -31 10 0 6 8 10 18 8 14
-2 17 4 17 34 l0 38 17 -23 c15 -19 19 -20 28 -7 5 8 10 30 10 49 0 29 2 32
15 21 8 -7 15 -18 15 -25 0 -7 6 -18 14 -24 12 -10 13 -6 4 26 -8 33 -36 243
-38 281 0 7 4 11 9 7 6 -3 8 4 5 17 -9 45 -6 162 5 166 6 2 11 13 11 24 0 14
5 18 15 14 13 -5 14 11 10 121 -3 87 -8 129 -17 135 -10 8 -10 11 0 15 14 5
17 33 3 33 -5 0 -12 -6 -15 -12 -3 -7 -3 6 0 30 4 29 1 50 -9 66 -8 12 -19 45
-23 72 -6 45 -6 48 9 35 12 -9 17 -10 17 -2 0 7 5 9 10 6 6 -4 10 11 10 39 0
25 -4 48 -10 51 -5 3 -10 15 -10 26 0 11 -10 39 -22 62 -17 33 -22 62 -24 138
-1 72 -6 104 -19 123 -22 33 -12 47 14 18 10 -12 21 -22 23 -22 3 0 5 27 5 61
0 67 13 43 -185 330 -88 127 -120 233 -64 211 24 -9 8 61 -24 103 -17 23 -22
35 -13 35 11 0 11 2 -1 10 -10 6 -15 27 -16 57 -1 26 -2 51 -3 54 0 3 -37 43
-81 88 -66 69 -80 89 -80 115 l1 31 17 -24 c31 -43 75 -80 93 -78 16 1 15 5
-9 32 -15 16 -32 35 -37 40 -9 9 -94 114 -113 140 -8 12 -63 74 -134 154 -26
28 -47 59 -46 69 0 45 -17 99 -37 117 -12 11 -29 34 -38 50 -9 17 -29 44 -44
60 -49 52 -123 147 -123 157 0 5 -4 6 -10 3 -5 -3 -8 0 -5 7 3 7 -13 26 -35
42 -38 28 -53 56 -30 56 6 0 4 13 -5 30 -9 17 -21 30 -28 30 -7 0 -23 10 -37
23 -14 13 -33 26 -42 30 -10 3 -18 14 -18 23 0 16 1 16 18 1 22 -20 40 -23 20
-4 -7 7 -39 26 -71 42 -32 16 -69 42 -82 57 -13 15 -30 28 -38 28 -7 0 -46 30
-86 67 -40 37 -103 86 -139 108 -68 42 -273 145 -289 145 -5 0 -31 14 -59 31
-42 28 -144 65 -144 53 0 -2 -17 2 -37 10 -21 8 -51 17 -67 21 -34 7 -78 34
-71 45 5 8 71 -2 123 -19 29 -8 32 -8 22 4 -11 13 -72 36 -132 49 -27 6 -34
-3 -29 -36 0 -4 -10 -3 -23 2 -13 5 -26 6 -29 4 -3 -3 -14 -1 -24 4 -48 26
-143 25 -143 -1 0 -8 -26 -12 -81 -14 -85 -1 -245 -34 -317 -65 -24 -10 -52
-18 -63 -18 -10 0 -19 -4 -19 -8 0 -14 -130 -62 -169 -62 -26 0 -80 -27 -98
-50 -10 -12 -12 -9 -10 22 1 20 4 36 7 35 3 -1 19 6 35 15 l30 16 -35 -2 c-59
-5 -61 -6 -55 -16 8 -12 -5 -13 -24 -1 -18 11 -6 81 13 81 8 0 16 9 19 20 3
13 0 20 -9 20 -8 0 -14 10 -14 23 0 12 -4 28 -9 36 -14 22 -41 -3 -33 -31 3
-13 -1 -24 -12 -30 -9 -5 -16 -18 -16 -28 0 -11 -4 -20 -10 -20 -5 0 -10 -7
-10 -15 0 -13 -4 -14 -20 -5 -17 9 -22 6 -37 -25 -9 -19 -23 -35 -30 -35 -7 0
-14 -4 -14 -10 -3 -21 -6 -26 -35 -57 l-31 -32 -31 22 c-17 12 -33 30 -36 40
-2 9 -12 17 -21 17 -14 0 -13 -4 5 -31 12 -16 20 -32 18 -35 -8 -8 -113 43
-145 70 -18 15 -38 24 -46 20 -10 -3 -33 10 -61 37 -37 33 -44 45 -35 56 10
11 15 11 32 -4 18 -17 18 -16 -1 17 -16 26 -34 40 -72 53 -27 10 -50 23 -50
28 0 6 -7 9 -15 5 -8 -3 -20 0 -27 7 -16 16 -63 35 -102 41 -15 3 -38 12 -50
19 -27 18 -175 55 -236 60 -25 1 -85 0 -135 -4z m1730 -709 c3 -5 1 -10 -4
-10 -6 0 -11 5 -11 10 0 6 2 10 4 10 3 0 8 -4 11 -10z m69 -50 c29 -30 34 -40
21 -40 -17 0 -75 55 -75 71 0 17 15 9 54 -31z m-713 3 c-12 -20 -14 -14 -5 12
4 9 9 14 11 11 3 -2 0 -13 -6 -23z m-36 -23 c3 -5 1 -10 -4 -10 -6 0 -11 5
-11 10 0 6 2 10 4 10 3 0 8 -4 11 -10z m26 -60 c13 -23 17 -46 14 -70 -3 -19
-7 -59 -8 -87 -2 -43 1 -53 14 -53 12 0 15 8 12 33 l-4 32 20 -23 c22 -25 18
-52 -7 -52 -12 0 -13 -3 -5 -11 7 -7 17 -8 25 -3 7 5 21 7 31 5 11 -1 26 7 34
18 8 12 19 21 24 21 14 0 -6 -33 -40 -65 -23 -23 -27 -33 -21 -54 4 -14 6 -34
4 -43 -1 -10 2 -18 7 -18 5 0 9 -9 9 -20 0 -11 -3 -20 -8 -20 -14 0 -31 37
-26 57 3 11 -3 26 -15 37 -20 18 -21 18 -27 0 -12 -32 -24 -42 -43 -37 -16 4
-17 9 -8 38 7 24 6 41 -4 64 -8 17 -17 31 -20 31 -3 0 -2 24 3 53 5 28 10 66
12 82 1 17 6 38 11 48 5 13 3 17 -6 15 -9 -2 -15 8 -17 31 -4 42 14 38 39 -9z
m-119 -19 c4 -27 -10 -61 -26 -61 -8 0 -8 53 0 74 10 25 21 19 26 -13z m754
-27 c39 -50 76 -84 91 -84 7 0 13 -5 13 -10 0 -6 7 -10 17 -8 10 2 19 -6 24
-24 10 -39 -14 -57 -26 -18 -3 11 -11 20 -16 20 -14 0 -11 -38 5 -63 34 -52
61 -187 34 -171 -5 3 -15 3 -23 0 -11 -4 -12 -11 -4 -34 6 -19 6 -37 0 -53
l-10 -24 -7 23 c-3 12 -10 22 -15 22 -5 0 -8 3 -8 8 3 20 -3 28 -26 30 -14 1
-25 -4 -25 -11 0 -26 21 -87 30 -87 5 0 6 -7 3 -17 -4 -11 -3 -14 5 -9 7 4 12
2 12 -4 0 -21 -23 -5 -41 29 -9 18 -24 38 -32 44 -17 15 -97 134 -97 145 0 4
-6 17 -14 28 -13 17 -13 13 -5 -31 5 -28 12 -58 15 -67 3 -10 1 -18 -3 -18
-15 0 -33 23 -33 41 0 10 -4 19 -10 21 -6 2 -6 15 -2 32 6 21 3 40 -10 65 -10
19 -18 42 -18 51 0 8 -16 33 -35 54 -19 22 -35 43 -35 47 0 5 15 15 34 24 32
15 36 15 60 0 14 -10 26 -21 26 -26 0 -4 13 -22 29 -40 16 -17 44 -61 63 -98
55 -111 108 -182 108 -147 0 8 -4 17 -9 20 -4 3 -11 19 -15 36 -3 17 -20 44
-37 60 -22 20 -31 37 -31 57 2 46 -20 113 -39 124 -11 5 -19 18 -19 27 0 10
-6 24 -12 31 -11 10 -9 12 7 11 35 -4 44 0 39 15 -11 28 14 15 42 -21z m-774
-76 c2 -7 3 -29 1 -48 -5 -41 -13 -159 -15 -212 -1 -21 -6 -38 -10 -38 -5 0
-15 -18 -24 -39 -11 -28 -20 -38 -31 -34 -10 4 -13 14 -9 32 11 55 25 150 37
249 10 87 14 102 29 102 10 0 20 -6 22 -12z m1109 -51 c-1 -12 -15 -9 -19 4
-3 6 1 10 8 8 6 -3 11 -8 11 -12z m212 -18 c5 -20 5 -20 -13 -4 -11 10 -17 22
-14 26 8 13 21 3 27 -22z m-953 -55 c0 -3 -7 -1 -15 6 -8 7 -15 17 -15 22 0 5
7 3 15 -6 8 -8 15 -18 15 -22z m-2450 0 c0 -8 -4 -12 -10 -9 -5 3 -10 -3 -10
-14 0 -12 -4 -21 -10 -21 -10 0 -3 27 13 48 13 16 17 15 17 -4z m2493 -67 c9
-3 17 -11 17 -17 0 -15 -16 -12 -30 5 -6 8 -17 13 -23 12 -6 -1 -13 9 -15 23
-3 25 -3 25 15 5 10 -12 26 -24 36 -28z m1035 -25 c10 -7 10 -11 -2 -21 -11
-10 -18 -8 -35 10 -12 13 -21 19 -21 15 0 -4 -7 -1 -15 8 -40 40 7 32 73 -12z
m-463 -52 c3 -5 -3 -10 -14 -10 -12 0 -21 5 -21 10 0 6 6 10 14 10 8 0 18 -4
21 -10z m535 -31 c0 -6 -4 -7 -10 -4 -5 3 -10 11 -10 16 0 6 5 7 10 4 6 -3 10
-11 10 -16z m-576 -45 c16 -6 23 -34 8 -34 -10 0 -32 22 -32 32 0 10 3 10 24
2z m-1014 -63 c0 -10 -3 -21 -6 -24 -13 -12 -21 3 -17 28 6 27 23 24 23 -4z
m945 -127 c3 -23 0 -33 -6 -27 -12 12 -20 53 -13 65 9 15 16 2 19 -38z m830
26 c3 -5 2 -10 -4 -10 -5 0 -13 5 -16 10 -3 6 -2 10 4 10 5 0 13 -4 16 -10z
m-833 -217 c-6 -2 -9 -10 -6 -15 4 -7 2 -8 -5 -4 -13 9 -5 26 12 25 9 0 8 -2
-1 -6z m735 -59 c-3 -3 -12 -4 -19 -1 -8 3 -5 6 6 6 11 1 17 -2 13 -5z m-1527
-59 c0 -9 6 -12 15 -9 16 7 16 5 21 -126 6 -163 18 -282 30 -302 2 -4 -1 -10
-7 -13 -6 -4 -13 2 -16 14 -3 12 -9 21 -14 21 -5 0 -9 24 -9 54 0 54 0 54 -25
43 -16 -8 -25 -20 -25 -36 0 -19 -3 -21 -14 -12 -14 12 -10 61 5 61 5 0 9 9 9
20 0 11 7 20 15 20 20 0 19 20 -5 50 -13 18 -16 28 -8 38 15 17 21 79 8 87
-11 7 -14 64 -4 89 8 20 24 21 24 1z m1180 -85 c0 -19 -18 -19 -23 -1 -3 14
-1 18 9 14 8 -3 14 -9 14 -13z m688 -21 c63 -29 64 -31 43 -45 -20 -15 -24
-14 -54 8 -18 14 -40 27 -49 31 -17 6 -26 37 -11 37 3 0 35 -14 71 -31z m-618
-9 c11 -11 25 -20 30 -20 6 0 10 -4 10 -10 0 -5 19 -14 43 -21 23 -6 50 -15
61 -21 13 -7 16 -6 11 3 -5 8 -4 10 3 5 7 -4 12 -13 12 -20 0 -7 11 -19 25
-26 14 -7 25 -19 25 -27 0 -16 -16 -17 -25 -2 -4 5 -12 8 -18 6 -6 -2 -23 9
-38 24 -15 15 -40 30 -55 33 -52 9 -73 18 -78 32 -3 8 -11 14 -17 14 -12 0
-38 29 -39 43 0 14 30 7 50 -13z m-1348 -7 c-10 -20 -5 -43 10 -43 5 0 7 10 4
23 -3 12 -3 16 0 10 3 -7 13 -13 21 -13 17 0 15 -29 -7 -145 -18 -91 -20 -136
-10 -156 6 -11 15 -17 21 -14 5 4 10 0 10 -7 1 -7 3 -24 4 -38 4 -33 -3 -43
-19 -28 -7 7 -10 23 -8 36 7 38 -19 46 -45 14 -12 -15 -22 -31 -23 -35 0 -5
-6 -15 -14 -23 -16 -15 -32 -2 -20 17 3 6 9 28 11 48 3 20 10 45 16 56 5 10
11 37 12 60 2 39 17 200 20 220 1 6 3 16 3 23 1 6 7 12 12 12 7 0 7 -6 2 -17z
m-757 -53 c-3 -5 -21 -14 -39 -20 -19 -6 -37 -17 -40 -25 -6 -17 -36 -20 -36
-5 0 6 11 15 24 19 13 5 26 15 28 23 3 7 20 14 37 15 17 1 29 -2 26 -7z m2802
-16 c-3 -3 -12 -4 -19 -1 -8 3 -5 6 6 6 11 1 17 -2 13 -5z m-1792 -82 c-6 -25
29 -154 51 -190 8 -12 19 -20 24 -17 16 10 2 87 -20 110 -21 22 -27 60 -11 69
5 3 13 -6 19 -22 5 -15 37 -62 71 -104 34 -43 59 -78 57 -78 -3 0 1 -12 9 -27
16 -31 15 -36 -9 -27 -13 5 -14 9 -5 21 10 11 8 15 -9 20 -12 3 -25 16 -28 29
-5 21 -31 44 -48 44 -3 0 -3 -13 0 -29 5 -22 1 -32 -20 -48 l-25 -20 20 -22
c11 -12 24 -19 29 -16 8 5 26 -32 22 -47 -1 -3 12 -21 29 -39 17 -18 39 -49
50 -68 11 -20 30 -52 41 -71 14 -22 16 -30 7 -23 -9 7 -24 29 -35 48 -10 19
-24 35 -30 35 -6 0 -14 8 -18 18 -8 25 -27 51 -66 91 -68 69 -74 79 -60 96 10
12 10 19 2 27 -7 7 -12 19 -12 28 0 8 -6 27 -14 41 -13 25 -24 61 -32 107 -3
13 -11 43 -19 65 -8 23 -15 51 -14 62 0 17 3 16 25 -10 16 -20 23 -37 19 -53z
m1928 39 c14 -14 -13 -24 -28 -11 -8 6 -19 9 -25 5 -13 -8 -32 4 -25 16 7 10
65 3 78 -10z m-1096 -8 c3 -10 15 -28 26 -40 l20 -23 -20 0 c-14 0 -26 10 -35
30 -7 17 -17 30 -21 30 -5 0 -5 5 -2 10 10 15 25 12 32 -7z m953 -13 c0 -5 -7
-10 -15 -10 -8 0 -15 5 -15 10 0 6 7 10 15 10 8 0 15 -4 15 -10z m-1350 -36
c0 -8 -4 -12 -10 -9 -5 3 -10 10 -10 16 0 5 5 9 10 9 6 0 10 -7 10 -16z m985
-8 c31 -14 48 -36 27 -36 -17 0 -72 32 -72 41 0 12 5 12 45 -5z m-487 -96 c24
-23 27 -30 13 -30 -13 0 -71 50 -71 61 0 12 28 -2 58 -31z m-290 12 c2 -7 -2
-10 -12 -6 -9 3 -16 11 -16 16 0 13 23 5 28 -10z m-1928 -2 c0 -5 -5 -10 -11
-10 -5 0 -7 5 -4 10 3 6 8 10 11 10 2 0 4 -4 4 -10z m1600 -17 c0 -22 -2 -25
-10 -13 -13 20 -13 40 0 40 6 0 10 -12 10 -27z m-1636 -38 c-7 -16 -24 -21
-24 -6 0 8 7 13 27 20 1 1 0 -6 -3 -14z m886 -16 c0 -6 -4 -7 -10 -4 -5 3 -10
11 -10 16 0 6 5 7 10 4 6 -3 10 -11 10 -16z m-920 -19 c0 -5 -4 -10 -10 -10
-5 0 -10 5 -10 10 0 6 5 10 10 10 6 0 10 -4 10 -10z m1340 -20 c0 -5 -2 -10
-4 -10 -3 0 -8 5 -11 10 -3 6 -1 10 4 10 6 0 11 -4 11 -10z m1088 -26 c-4 -3
-12 5 -18 18 -12 22 -12 22 6 6 10 -10 15 -20 12 -24z m-848 5 c0 -6 -4 -7
-10 -4 -5 3 -10 11 -10 16 0 6 5 7 10 4 6 -3 10 -11 10 -16z m634 5 c9 -3 16
-13 16 -20 0 -12 -4 -12 -20 -4 -11 6 -20 15 -20 20 0 12 3 12 24 4z m-174
-34 c0 -5 -4 -10 -10 -10 -5 0 -10 5 -10 10 0 6 5 10 10 10 6 0 10 -4 10 -10z
m220 0 c0 -5 -4 -10 -10 -10 -5 0 -10 5 -10 10 0 6 5 10 10 10 6 0 10 -4 10
-10z m22 -17 c-3 -16 -7 -22 -10 -15 -4 13 4 42 11 42 2 0 2 -12 -1 -27z
m-1382 3 c0 -8 -4 -18 -10 -21 -5 -3 -10 3 -10 14 0 12 5 21 10 21 6 0 10 -6
10 -14z m1410 -36 c0 -5 -2 -10 -4 -10 -3 0 -8 5 -11 10 -3 6 -1 10 4 10 6 0
11 -4 11 -10z m-1294 -27 c-10 -10 -19 5 -10 18 6 11 8 11 12 0 2 -7 1 -15 -2
-18z m358 8 c8 -13 -5 -71 -15 -71 -5 0 -9 18 -9 40 0 37 11 52 24 31z m266
-12 c0 -5 -4 -9 -10 -9 -5 0 -10 7 -10 16 0 8 5 12 10 9 6 -3 10 -10 10 -16z
m-760 -32 c0 -24 -3 -28 -10 -17 -13 20 -13 63 0 55 6 -3 10 -21 10 -38z
m-840 28 c0 -2 -10 -10 -22 -16 -21 -11 -22 -11 -9 4 13 16 31 23 31 12z m663
-12 c-11 -32 -33 -59 -33 -42 0 14 27 59 35 59 3 0 2 -8 -2 -17z m307 -8 c0
-8 -4 -24 -9 -37 -5 -13 -19 -66 -32 -118 -34 -145 -53 -177 -56 -95 -1 25 3
45 8 45 5 0 9 12 9 26 0 15 11 52 24 83 14 31 27 68 30 84 7 28 26 38 26 12z
m-1375 -12 c56 -6 96 -31 72 -45 -8 -4 -23 -6 -35 -3 -11 2 -23 -3 -26 -11 -3
-8 -13 -14 -21 -14 -15 0 -15 1 0 16 12 12 13 19 4 30 -6 8 -15 12 -19 9 -5
-3 -11 -1 -15 5 -4 6 -10 8 -14 5 -5 -2 -17 3 -27 11 -18 15 -18 15 6 9 14 -4
48 -9 75 -12z m2850 7 c3 -5 2 -10 -4 -10 -5 0 -13 5 -16 10 -3 6 -2 10 4 10
5 0 13 -4 16 -10z m-1295 -30 c0 -5 -2 -10 -4 -10 -3 0 -8 5 -11 10 -3 6 -1
10 4 10 6 0 11 -4 11 -10z m144 -12 c2 -7 8 -28 14 -45 11 -36 8 -40 -14 -19
-19 20 -30 76 -15 76 6 0 13 -6 15 -12z m1248 -85 c55 -56 30 -55 -36 0 -28
23 -63 51 -78 60 -16 10 -28 22 -28 28 0 17 98 -44 142 -88z m-1931 39 c-18
-32 -64 -87 -57 -69 3 10 6 24 6 31 0 20 40 67 51 60 5 -3 5 -12 0 -22z m209
-52 c-6 -11 -15 -18 -21 -15 -13 9 -11 45 3 45 6 0 8 3 5 6 -3 4 -1 16 6 28
11 20 12 19 15 -11 2 -18 -2 -41 -8 -53z m1295 30 c18 -11 47 -36 64 -55 17
-19 37 -35 46 -35 8 0 15 -8 15 -17 0 -9 6 -24 13 -32 21 -26 37 -70 27 -76
-9 -6 -50 41 -50 59 0 18 -105 129 -125 132 -31 5 -48 29 -39 55 6 19 9 20 12
7 2 -9 18 -27 37 -38z m-381 24 c3 -8 2 -12 -4 -9 -6 3 -10 10 -10 16 0 14 7
11 14 -7z m121 -4 c3 -5 1 -10 -4 -10 -6 0 -11 5 -11 10 0 6 2 10 4 10 3 0 8
-4 11 -10z m195 2 c0 -13 -12 -22 -22 -16 -10 6 -1 24 13 24 5 0 9 -4 9 -8z
m-290 -37 c11 -13 10 -14 -4 -9 -9 3 -16 10 -16 15 0 13 6 11 20 -6z m440 5
c0 -5 7 -10 15 -10 8 0 15 -4 15 -10 0 -13 -6 -13 -31 0 -20 11 -26 30 -9 30
6 0 10 -4 10 -10z m400 -5 c7 -9 10 -18 6 -22 -3 -3 -6 -1 -6 5 0 7 -7 12 -15
12 -8 0 -15 5 -15 10 0 15 16 12 30 -5z m-860 -20 c0 -2 3 -12 7 -22 5 -14 1
-12 -20 7 -32 30 -35 45 -7 30 11 -6 20 -12 20 -15z m-1360 -33 c-8 -3 -18
-10 -22 -16 -4 -6 -11 -7 -15 -2 -11 10 27 37 40 29 7 -4 6 -8 -3 -11z m1049
-13 c9 -15 10 -24 2 -32 -8 -8 -11 -5 -11 11 0 13 -7 25 -15 28 -8 4 -15 10
-15 15 0 14 25 0 39 -22z m1181 5 c0 -8 -4 -12 -10 -9 -5 3 -10 13 -10 21 0 8
5 12 10 9 6 -3 10 -13 10 -21z m-747 -20 c21 -25 25 -34 14 -34 -9 0 -19 9
-22 20 -3 11 -10 20 -15 20 -4 0 -10 7 -14 15 -9 25 7 16 37 -21z m507 21 c7
-9 8 -15 2 -15 -5 0 -12 7 -16 15 -3 8 -4 15 -2 15 2 0 9 -7 16 -15z m-1584
-51 c-3 -9 -10 -13 -15 -10 -5 4 -4 19 2 37 11 28 12 29 15 10 2 -13 1 -29 -2
-37z m1524 16 c0 -5 -4 -10 -10 -10 -5 0 -10 5 -10 10 0 6 5 10 10 10 6 0 10
-4 10 -10z m-1068 -42 c-10 -22 -11 -21 -11 12 -1 26 2 31 11 22 8 -8 8 -17 0
-34z m576 14 c6 -18 -15 -14 -22 4 -4 10 -1 14 6 12 6 -2 14 -10 16 -16z m912
-23 c0 -6 -4 -7 -10 -4 -5 3 -10 11 -10 16 0 6 5 7 10 4 6 -3 10 -11 10 -16z
m-1555 -28 c-10 -10 -34 10 -29 24 6 14 8 13 19 -2 8 -10 12 -20 10 -22z m275
13 c0 -8 -4 -12 -10 -9 -5 3 -10 13 -10 21 0 8 5 12 10 9 6 -3 10 -13 10 -21z
m725 6 c3 -5 -1 -10 -9 -10 -9 0 -16 5 -16 10 0 6 4 10 9 10 6 0 13 -4 16 -10z
m-1395 -21 c0 -5 -7 -9 -15 -9 -15 0 -20 12 -9 23 8 8 24 -1 24 -14z m-125
-49 c-4 -39 -4 -40 -20 -40 -18 0 -19 9 -3 60 10 29 14 35 19 22 4 -9 5 -28 4
-42z m585 45 c0 -8 -1 -16 -2 -18 -2 -2 5 -15 15 -30 17 -26 16 -47 -2 -47
-12 0 -31 48 -31 80 0 17 5 30 10 30 6 0 10 -7 10 -15z m1134 -1 c3 -8 2 -12
-4 -9 -6 3 -10 10 -10 16 0 14 7 11 14 -7z m86 -56 c12 -16 18 -28 13 -28 -13
0 -61 58 -68 83 -7 24 -3 21 55 -55z m-2251 45 c-8 -10 -18 -21 -24 -25 -64
-46 -125 -103 -125 -117 0 -6 -6 -11 -13 -11 -7 0 -20 -12 -29 -27 -10 -16
-18 -23 -18 -16 0 7 -7 10 -16 6 -9 -3 -13 -12 -10 -22 5 -14 5 -14 -6 -1 -14
17 -48 26 -48 13 0 -5 -9 -9 -20 -9 -11 0 -20 4 -20 8 0 4 5 8 12 8 6 0 8 3 5
7 -11 10 13 32 28 27 22 -9 55 14 48 33 -5 13 -2 15 12 9 13 -5 32 5 66 34 27
23 50 36 54 30 7 -11 35 12 35 29 0 6 9 11 21 11 11 0 18 4 15 9 -6 10 9 19
33 20 11 1 11 -2 0 -16z m1712 -7 c1 -6 1 -14 0 -18 0 -4 8 -12 19 -18 11 -6
20 -17 20 -25 0 -24 -18 -17 -34 13 -8 16 -22 34 -30 41 -9 8 -16 17 -16 21 0
13 40 -1 41 -14z m-167 -25 c-6 -6 -24 19 -24 34 1 6 7 1 15 -9 8 -11 12 -22
9 -25z m-591 -107 c5 -64 4 -72 -4 -44 -6 19 -15 43 -20 52 -12 23 -14 91 -4
109 12 19 21 -18 28 -117z m1037 111 c7 -8 8 -15 2 -15 -5 0 -15 7 -22 15 -7
8 -8 15 -2 15 5 0 15 -7 22 -15z m614 -21 c3 -8 2 -12 -4 -9 -6 3 -10 10 -10
16 0 14 7 11 14 -7z m-380 -49 c3 -8 2 -15 -2 -15 -9 1 -44 31 -62 53 -12 16
-9 16 22 -3 20 -11 39 -27 42 -35z m470 14 c20 -23 35 -44 33 -46 -5 -4 -87
74 -87 82 0 15 22 0 54 -36z m-1044 -43 c0 -4 -9 2 -19 15 -11 13 -17 28 -14
33 6 8 32 -30 33 -48z m438 13 c-3 -8 -7 -3 -11 10 -4 17 -3 21 5 13 5 -5 8
-16 6 -23z m-1675 -4 c-5 -13 -23 -22 -23 -11 0 15 14 35 21 31 4 -3 6 -12 2
-20z m227 11 c0 -3 -4 -8 -10 -11 -5 -3 -10 -1 -10 4 0 6 5 11 10 11 6 0 10
-2 10 -4z m1320 -36 c17 -13 20 -20 10 -20 -9 0 -23 9 -33 20 -21 25 -9 25 23
0z m580 -34 c0 -6 -5 -3 -11 7 -6 9 -14 15 -20 12 -5 -4 -9 2 -9 11 0 16 1 16
20 -1 11 -10 20 -23 20 -29z m-2125 -14 c-8 -8 -25 17 -25 38 0 9 6 6 16 -8 9
-13 13 -26 9 -30z m1217 22 c7 -9 30 -35 51 -57 39 -42 44 -64 6 -28 -12 11
-26 18 -31 15 -11 -7 -40 15 -33 26 2 4 -4 15 -15 25 -11 10 -20 22 -20 27 0
14 29 9 42 -8z m231 -24 c3 -11 0 -18 -7 -17 -14 3 -26 18 -26 34 0 19 27 4
33 -17z m-299 -20 c-6 -5 -24 21 -24 34 0 6 6 1 14 -10 8 -10 12 -21 10 -24z
m1206 30 c0 -5 -4 -10 -10 -10 -5 0 -10 5 -10 10 0 6 5 10 10 10 6 0 10 -4 10
-10z m-556 -16 c5 -14 4 -15 -9 -4 -17 14 -19 20 -6 20 5 0 12 -7 15 -16z
m-449 -35 c17 -23 42 -50 58 -61 32 -23 54 -58 36 -58 -15 0 -139 131 -139
147 0 23 14 14 45 -28z m-2127 1 c-7 -11 -16 -16 -21 -11 -12 12 0 31 19 31
12 0 12 -3 2 -20z m1358 8 c-1 -7 -4 -17 -8 -23 -3 -5 -8 -31 -12 -56 -4 -25
-15 -55 -25 -66 -13 -14 -16 -25 -10 -34 8 -12 10 -12 19 1 5 8 10 21 10 28 0
6 5 12 10 12 15 0 12 -31 -4 -49 -8 -9 -25 -36 -38 -60 -13 -25 -29 -46 -36
-49 -20 -6 -9 75 16 127 12 23 24 56 27 74 8 39 38 106 47 107 3 0 5 -6 4 -12z
m900 -13 c3 -17 -12 -20 -21 -5 -7 12 4 34 13 25 3 -3 7 -12 8 -20z m-2166 11
c0 -3 -4 -8 -10 -11 -5 -3 -10 -1 -10 4 0 6 5 11 10 11 6 0 10 -2 10 -4z
m3094 -15 c10 -11 16 -25 14 -32 -2 -7 -14 1 -27 19 -24 35 -15 44 13 13z
m-3249 -1 c-3 -5 -11 -10 -16 -10 -6 0 -7 5 -4 10 3 6 11 10 16 10 6 0 7 -4 4
-10z m2360 -19 c-6 -5 -25 10 -25 20 0 5 6 4 14 -3 8 -7 12 -15 11 -17z
m-2226 -8 c-38 -47 -69 -67 -69 -44 0 15 49 61 66 61 14 0 15 -2 3 -17z m1975
-26 c14 -21 26 -46 26 -55 0 -10 7 -28 16 -40 8 -12 11 -22 5 -22 -14 0 -62
60 -55 71 3 5 -4 24 -15 43 -11 18 -18 36 -14 39 8 8 6 10 37 -36z m-2099 13
c-3 -5 -13 -10 -22 -10 -10 0 -13 -6 -9 -17 6 -17 5 -17 -7 -1 -8 10 -17 15
-20 11 -4 -3 -7 -1 -7 5 0 9 20 17 58 21 7 0 10 -3 7 -9z m2715 -15 c10 -12
10 -15 -4 -15 -9 0 -16 7 -16 15 0 8 2 15 4 15 2 0 9 -7 16 -15z m167 -6 c19
-12 33 -23 31 -24 -9 -9 -56 9 -66 26 -16 24 -7 24 35 -2z m-507 -62 c0 -5 -4
-5 -10 -2 -5 3 -10 14 -10 23 0 15 2 15 10 2 5 -8 10 -19 10 -23z m-2480 -12
c0 -14 -8 -29 -19 -35 -27 -14 -28 -14 -33 20 -3 21 0 30 11 33 34 9 41 6 41
-18z m145 15 c-3 -5 -14 -10 -23 -10 -15 0 -15 2 -2 10 20 13 33 13 25 0z
m1219 -55 c-5 -20 -9 -24 -18 -14 -8 8 -8 13 2 16 6 3 12 12 12 21 0 8 2 13 5
10 4 -3 3 -18 -1 -33z m1161 5 c3 -5 1 -10 -4 -10 -6 0 -11 5 -11 10 0 6 2 10
4 10 3 0 8 -4 11 -10z m625 -5 c7 -8 8 -15 2 -15 -5 0 -15 7 -22 15 -7 8 -8
15 -2 15 5 0 15 -7 22 -15z m1800 5 c0 -5 -2 -10 -4 -10 -3 0 -8 5 -11 10 -3
6 -1 10 4 10 6 0 11 -4 11 -10z m-4036 -27 c-1 -16 -3 -31 -3 -35 -2 -12 -41
-30 -41 -18 0 5 7 10 15 10 10 0 15 11 15 35 0 19 4 35 8 35 4 0 7 -12 6 -27z
m-998 2 c-22 -16 -46 -20 -46 -7 0 15 13 22 39 22 25 -1 25 -1 7 -15z m5034
-15 c0 -5 -5 -10 -11 -10 -5 0 -7 5 -4 10 3 6 8 10 11 10 2 0 4 -4 4 -10z
m-5133 -36 c-3 -3 -12 -4 -19 -1 -8 3 -5 6 6 6 11 1 17 -2 13 -5z m1586 -70
c-4 -12 -8 -13 -13 -3 -6 8 -9 6 -13 -7 -4 -17 -5 -16 -6 3 0 12 5 23 12 26
18 6 27 -2 20 -19z m-33 -54 c0 -5 -5 -10 -11 -10 -5 0 -7 5 -4 10 3 6 8 10
11 10 2 0 4 -4 4 -10z m-59 -113 c-10 -9 -11 -8 -5 6 3 10 9 15 12 12 3 -3 0
-11 -7 -18z m-2637 -43 c9 -3 16 -14 16 -24 0 -13 11 -21 37 -27 l37 -9 -35
-16 c-19 -9 -46 -26 -59 -37 -14 -12 -41 -34 -60 -50 -35 -29 -89 -45 -106
-32 -19 13 -15 67 5 93 12 14 21 31 21 37 0 5 12 16 28 23 15 7 28 19 28 26 1
6 2 14 3 17 2 7 66 6 85 -1z m-167 -280 c-3 -3 -12 -4 -19 -1 -8 3 -5 6 6 6
11 1 17 -2 13 -5z m1596 -180 c3 -4 -10 -15 -31 -25 -30 -16 -42 -17 -69 -8
-45 14 -32 30 23 27 24 0 47 2 51 5 8 9 18 9 26 1z m1645 -5 c-2 -6 3 -14 11
-17 9 -3 11 0 6 8 -5 8 -4 11 3 7 9 -6 5 -47 -5 -47 -4 0 -45 20 -52 26 -4 4
22 33 32 34 4 0 6 -5 5 -11z m167 -39 c3 -5 -1 -10 -10 -10 -9 0 -13 5 -10 10
3 6 8 10 10 10 2 0 7 -4 10 -10z m-1520 -9 c3 -6 18 -6 38 0 44 13 51 11 37
-6 -19 -23 -119 -17 -104 6 7 12 21 12 29 0z m221 -11 c0 -11 -6 -20 -13 -20
-17 0 -17 27 0 33 6 3 12 6 12 6 1 1 1 -8 1 -19z m-276 0 c0 -5 -14 -10 -31
-10 -17 0 -28 4 -24 10 3 6 17 10 31 10 13 0 24 -4 24 -10z m-67 -25 c26 -3
45 -10 42 -16 -4 -5 -2 -9 4 -9 5 0 12 4 15 9 7 10 18 9 55 -3 18 -6 26 -4 33
8 10 17 48 22 48 6 0 -5 12 -10 28 -10 l27 -1 -25 -14 c-14 -7 -73 -16 -130
-20 -57 -4 -108 -9 -113 -12 -12 -7 -166 18 -173 28 -3 5 -20 9 -37 9 -34 0
-65 14 -51 23 5 2 24 4 42 2 17 -1 32 1 32 6 0 5 23 8 50 8 28 -1 53 1 56 4 3
3 16 2 27 -3 12 -5 43 -12 70 -15z m1772 15 c-3 -5 -11 -10 -16 -10 -6 0 -7 5
-4 10 3 6 11 10 16 10 6 0 7 -4 4 -10z m-1470 -20 c-3 -5 -12 -7 -20 -3 -21 7
-19 13 6 13 11 0 18 -4 14 -10z m4305 -28 c0 -9 9 -30 20 -47 26 -40 26 -57
-2 -53 -18 2 -23 10 -25 43 -1 22 -5 51 -8 63 -4 15 -2 21 5 17 5 -3 10 -14
10 -23z m-3046 -18 c3 -8 2 -12 -4 -9 -6 3 -10 10 -10 16 0 14 7 11 14 -7z
m-24 -24 c0 -5 -5 -10 -11 -10 -5 0 -7 5 -4 10 3 6 8 10 11 10 2 0 4 -4 4 -10z
m-2847 -176 c7 -8 -3 -34 -13 -34 -5 0 -8 9 -7 20 1 20 8 25 20 14z m3847
-1176 c18 -8 54 -16 106 -24 96 -14 187 -59 192 -94 3 -17 0 -21 -12 -17 -13
5 -14 3 -4 -13 10 -16 9 -23 -7 -39 -37 -37 -42 -47 -35 -66 13 -36 0 -55 -35
-55 -43 0 -65 -9 -65 -25 0 -8 -5 -17 -12 -21 -7 -5 -8 -2 -3 7 7 12 5 12 -6
1 -12 -11 -12 -14 1 -23 12 -9 10 -10 -7 -6 -13 3 -26 1 -29 -4 -20 -33 -216
27 -278 84 -16 15 -34 27 -41 27 -7 0 -22 9 -35 20 -13 11 -35 20 -49 21 -31
1 -63 12 -62 22 3 21 0 28 -9 22 -6 -4 -10 5 -10 19 0 17 6 26 15 26 12 0 14
9 10 40 -2 21 0 42 5 45 6 3 10 0 10 -7 0 -8 4 -7 11 4 5 10 16 15 24 12 8 -4
15 -1 15 5 0 16 34 27 104 35 33 3 61 7 62 9 5 5 130 1 144 -5z m971 -115 c5
-100 -6 -189 -27 -218 -13 -17 -16 -18 -24 -5 -5 8 -10 24 -10 35 0 17 -2 17
-10 5 -5 -8 -10 -10 -10 -4 0 5 5 15 12 22 9 9 16 8 32 -6 21 -17 21 -17 2 5
-25 30 -37 95 -19 111 7 7 13 25 13 41 0 32 4 38 25 38 9 0 15 -10 16 -24z
m535 -150 c-10 -11 -25 18 -18 35 4 13 8 11 15 -6 6 -12 7 -25 3 -29z m-641
-90 c1 -10 7 -28 13 -40 7 -13 10 -40 7 -65 -4 -35 -3 -39 5 -22 8 14 21 20
45 20 27 0 35 -5 40 -24 3 -14 0 -31 -7 -40 -17 -20 -90 -52 -102 -45 -5 4
-30 6 -54 4 -24 -1 -50 3 -58 10 -19 16 -17 57 6 99 10 19 26 50 34 69 14 29
19 32 43 26 23 -5 26 -4 16 6 -7 7 -13 20 -13 28 0 21 23 -3 25 -26z m-1350
-203 c-3 -5 -10 -10 -16 -10 -5 0 -9 5 -9 10 0 6 7 10 16 10 8 0 12 -4 9 -10z
m50 -10 c-3 -5 -1 -11 4 -14 5 -4 13 -1 16 5 4 5 13 8 21 5 8 -3 14 -1 14 5 0
6 7 6 19 -1 11 -5 27 -7 35 -4 9 3 16 2 16 -2 0 -9 25 -22 85 -44 16 -6 52
-14 80 -17 27 -3 54 -7 59 -10 5 -3 65 -7 135 -8 99 -2 136 2 177 16 54 19 85
18 112 -3 13 -11 14 -11 7 2 -7 12 -6 13 6 4 8 -6 24 -10 36 -9 12 1 25 -5 28
-13 4 -12 8 -12 22 -1 12 10 14 10 9 2 -4 -8 -2 -13 8 -13 8 0 18 5 21 10 3 6
13 10 21 10 18 0 19 -46 0 -53 -8 -3 -12 -16 -11 -31 3 -22 0 -24 -14 -16 -13
6 -18 5 -18 -6 0 -7 5 -14 11 -14 5 0 2 -6 -9 -14 -12 -8 -16 -20 -12 -35 3
-14 1 -21 -9 -21 -8 0 -14 5 -14 12 0 6 -2 9 -5 6 -9 -9 7 -38 21 -38 19 0 18
-20 -3 -49 -10 -16 -12 -21 -3 -16 7 5 5 -4 -6 -18 -10 -15 -24 -27 -31 -27
-7 0 -10 -12 -8 -30 2 -16 0 -30 -5 -30 -4 0 -11 -14 -15 -30 -4 -17 -10 -28
-15 -25 -5 3 -6 -8 -4 -25 4 -23 1 -30 -10 -30 -11 0 -16 -10 -16 -32 0 -24
-9 -40 -37 -66 -25 -23 -33 -37 -25 -40 10 -3 9 -8 -4 -23 -9 -10 -21 -16 -25
-13 -5 3 -9 -5 -10 -18 0 -22 -1 -22 -9 -3 -5 11 -9 14 -9 8 -1 -7 -7 -13 -13
-13 -7 0 -14 -13 -15 -29 -1 -16 -14 -41 -28 -55 -14 -14 -25 -22 -25 -19 0 3
-9 -2 -20 -12 -11 -10 -20 -14 -20 -10 0 5 -14 -6 -32 -24 -17 -17 -37 -30
-44 -27 -7 3 -14 -4 -16 -17 -2 -11 -12 -24 -23 -27 -11 -3 -20 -12 -20 -20 0
-8 -6 -14 -14 -12 -7 2 -22 -5 -32 -14 -10 -9 -25 -14 -34 -10 -11 4 -15 1
-13 -10 2 -9 -7 -20 -19 -25 -14 -5 -23 -5 -23 1 0 6 -15 4 -35 -4 -21 -9 -35
-11 -35 -5 0 6 -7 3 -16 -5 -20 -20 -25 -20 -17 0 4 12 2 15 -8 12 -8 -3 -13
-11 -12 -17 2 -6 -3 -11 -11 -11 -8 0 -17 -7 -20 -16 -3 -8 -10 -12 -16 -9 -6
3 -7 -1 -4 -10 4 -10 2 -15 -7 -13 -7 2 -13 -3 -14 -9 0 -7 -4 -12 -10 -11 -5
2 -9 7 -7 13 1 5 -4 2 -11 -7 -8 -10 -18 -18 -23 -18 -6 0 -10 -9 -11 -21 -2
-18 0 -19 15 -7 15 11 15 10 0 -8 -10 -11 -18 -26 -18 -32 0 -7 -6 -11 -12 -9
-7 1 -14 -7 -16 -18 -3 -21 -48 -49 -63 -39 -5 3 -6 -3 -2 -12 5 -13 3 -15 -8
-8 -8 4 -24 7 -36 5 -13 -1 -23 3 -23 9 0 6 -5 8 -10 5 -6 -3 -13 2 -17 12 -9
24 -54 63 -66 56 -5 -3 -6 10 -3 28 16 95 41 134 80 127 25 -5 49 21 41 44 -3
8 2 22 11 33 8 11 12 13 8 5 -7 -13 -5 -13 9 -2 9 8 16 17 15 20 0 4 0 18 1
32 1 20 3 22 12 10 8 -12 10 -10 8 10 -1 14 0 27 1 30 8 22 4 90 -7 110 -7 14
-13 30 -13 36 0 6 -12 21 -27 34 -16 13 -22 25 -16 27 8 3 5 11 -8 24 -10 10
-19 28 -19 40 0 14 -5 19 -15 16 -11 -5 -13 0 -9 22 4 18 0 33 -10 43 -8 9
-12 18 -9 22 4 3 1 6 -5 6 -6 0 -13 15 -17 33 -3 17 -10 41 -14 52 -31 74 -31
74 -15 90 13 12 14 19 4 30 -7 8 -17 12 -22 8 -6 -3 -9 0 -6 8 3 8 14 15 26
17 12 2 22 10 22 18 0 9 -5 13 -12 9 -7 -4 -4 1 6 9 14 11 16 16 6 16 -12 0
-12 3 1 15 14 14 14 22 1 76 -13 52 -13 62 -1 70 11 7 10 9 -6 9 -19 1 -19 1
-2 11 9 6 15 14 12 20 -6 8 2 11 21 8 4 0 10 4 14 10 6 10 60 18 138 20 20 1
32 6 32 15 0 9 7 12 20 9 11 -3 18 -9 15 -13z m345 8 c0 -4 -4 -8 -9 -8 -6 0
-12 4 -15 8 -3 5 1 9 9 9 8 0 15 -4 15 -9z m1106 -9 c3 -6 2 -15 -4 -21 -6 -6
-8 -16 -6 -23 3 -7 1 -16 -5 -20 -6 -3 -11 -2 -11 4 0 5 -12 11 -27 13 -20 2
-29 9 -31 25 -3 21 1 24 65 32 6 0 15 -4 19 -10z m-1860 -674 c7 -6 21 -30 33
-53 37 -73 25 -147 -35 -212 -20 -22 -46 -40 -56 -40 -17 0 -18 7 -14 73 2 39
4 91 5 114 1 23 7 48 15 55 8 8 11 26 9 44 -4 25 -1 31 13 31 11 0 24 -5 30
-12z m280 -699 c15 6 17 4 7 -6 -14 -15 -43 -7 -43 12 0 11 2 11 8 0 5 -7 16
-10 28 -6z m-834 -1554 c-7 -2 -10 -8 -6 -13 3 -5 1 -9 -5 -9 -5 0 -9 9 -8 19
1 12 6 17 16 13 10 -4 11 -7 3 -10z m-67 -20 c-11 -8 -18 -32 -9 -32 3 0 15
10 26 23 11 12 17 17 14 10 -4 -6 0 -14 6 -16 8 -3 6 -6 -4 -6 -10 -1 -18 -7
-18 -15 0 -8 -5 -18 -12 -22 -7 -5 -8 -3 -3 6 5 9 4 11 -3 6 -16 -10 -15 -33
1 -39 9 -4 9 -7 0 -14 -8 -6 -9 -14 -3 -23 8 -12 10 -12 10 -1 0 10 8 12 29 8
15 -3 32 -2 38 4 5 5 18 7 28 3 17 -7 17 -8 1 -20 -10 -7 -18 -16 -18 -21 -2
-36 -23 -59 -50 -54 -5 0 -8 -8 -8 -18 0 -12 -9 -21 -26 -25 -16 -4 -24 -12
-21 -21 3 -7 -4 -20 -16 -28 -13 -8 -49 -40 -82 -71 -33 -31 -78 -68 -102 -83
-23 -14 -40 -30 -37 -35 4 -5 -3 -12 -14 -15 -11 -2 -25 -16 -32 -29 -8 -13
-17 -24 -22 -24 -5 0 -32 -22 -61 -50 -29 -27 -56 -50 -61 -50 -5 0 -23 -11
-40 -24 -53 -40 -125 -67 -240 -91 -61 -12 -118 -22 -126 -23 -8 0 -51 -4 -95
-8 -93 -10 -116 -10 -210 1 -76 8 -145 37 -145 60 0 15 5 14 120 -4 83 -13
288 2 305 23 6 7 19 16 30 20 19 8 19 8 -3 17 -13 5 -21 13 -18 18 3 4 -10 6
-29 4 -36 -4 -44 4 -23 25 7 7 9 13 5 13 -24 5 -33 4 -38 -3 -3 -5 -20 12 -39
37 -18 24 -38 41 -43 38 -6 -4 -8 0 -4 10 4 11 1 17 -9 17 -18 0 -9 39 13 55
8 6 15 17 16 25 2 8 6 21 10 27 6 9 3 11 -8 7 -11 -5 -18 0 -22 15 -3 11 -11
21 -19 21 -10 0 -11 6 -5 23 13 36 6 74 -21 114 -21 33 -23 42 -13 65 16 40
47 65 96 79 24 7 47 12 52 11 4 -1 7 3 7 8 0 5 3 9 8 8 4 -1 17 3 30 10 20 12
26 9 23 -11 -1 -5 3 -5 10 -2 17 11 79 11 79 0 0 -5 4 -4 9 4 5 8 16 11 25 8
8 -3 18 -2 22 4 4 7 10 7 18 0 6 -6 21 -10 31 -10 70 -2 125 -7 125 -12 0 -3
7 -6 15 -6 18 0 20 13 3 20 -8 3 -6 6 5 6 10 1 20 -5 23 -12 5 -13 48 -16 60
-4 4 4 12 3 18 -1 17 -10 75 -12 81 -2 3 6 15 6 30 0 16 -6 25 -5 29 3 3 9 7
8 15 -3 8 -11 11 -12 11 -2 0 7 5 10 10 7 6 -3 10 0 10 7 0 9 3 9 10 -2 7 -11
10 -11 10 -2 0 7 5 10 10 7 6 -3 10 -2 10 4 0 5 8 9 18 9 27 -2 125 24 147 38
20 14 68 20 50 6z m-714 -1456 c5 3 9 1 9 -5 0 -5 -5 -13 -10 -16 -6 -4 -8
-11 -5 -16 4 -5 -3 -9 -14 -9 -10 0 -26 -3 -35 -6 -12 -5 -16 0 -16 20 0 17 4
24 13 20 8 -3 20 3 28 12 8 10 15 12 17 5 2 -6 8 -9 13 -5z m116 -21 c-13 -9
-14 -14 -4 -25 10 -10 9 -12 -5 -7 -10 3 -20 1 -24 -5 -4 -7 -3 -8 4 -4 8 5
12 0 12 -13 0 -14 -5 -19 -15 -15 -8 4 -15 1 -15 -7 0 -7 -3 -9 -7 -5 -12 11
-12 39 -1 59 7 14 7 17 -1 13 -6 -4 -11 -3 -11 3 0 12 12 16 52 17 27 1 29 0
15 -11z m1221 -184 c8 -4 14 -12 14 -17 -1 -5 6 -8 15 -6 9 2 13 -2 11 -9 -5
-15 21 -49 38 -49 13 0 23 -28 17 -48 -3 -6 -8 -10 -12 -8 -4 3 -8 -10 -9 -27
-3 -40 -38 -113 -57 -121 -8 -3 -15 -12 -15 -19 0 -8 -6 -20 -14 -26 -32 -26
-75 -136 -74 -189 0 -48 -19 -112 -33 -112 -8 0 -42 -90 -36 -96 2 -3 -7 -19
-22 -36 -39 -46 -199 -208 -205 -208 -3 0 -34 -29 -68 -64 -35 -34 -73 -66
-86 -70 -12 -4 -22 -12 -22 -17 0 -5 -16 -9 -35 -9 -34 0 -34 1 -35 42 0 74
-4 103 -15 110 -6 5 -5 8 3 8 8 0 10 5 6 12 -5 8 -2 9 9 5 9 -3 19 -1 23 5 4
7 3 8 -4 4 -7 -4 -12 -4 -13 1 -4 41 -12 68 -25 80 -20 20 -18 44 3 36 10 -4
14 -2 10 4 -4 6 3 8 17 6 26 -5 43 11 25 23 -8 4 -9 3 -5 -4 5 -8 1 -10 -10
-5 -11 4 -13 8 -6 11 7 2 10 8 7 12 -3 5 0 12 6 16 8 5 10 2 4 -7 -4 -8 4 -1
19 15 29 32 34 45 11 26 -8 -7 -15 -11 -16 -9 -4 20 -5 48 0 44 3 -3 13 14 22
37 11 27 18 36 19 23 1 -16 5 -12 21 15 11 19 18 27 15 17 -4 -13 2 -11 22 10
32 32 53 84 24 61 -13 -11 -15 -11 -10 4 4 9 4 19 0 22 -10 10 -11 35 -2 41 5
3 7 -4 5 -15 -2 -11 0 -20 6 -20 5 0 9 8 9 18 0 14 2 15 10 2 9 -14 14 -7 11
13 -1 5 4 7 11 4 7 -2 11 -11 10 -18 -2 -8 0 -10 5 -6 4 5 9 13 9 18 1 5 2 14
3 19 0 6 9 10 19 11 11 0 12 2 4 6 -10 4 -9 9 5 20 10 8 12 11 4 7 -11 -5 -13
-3 -8 10 4 10 7 22 7 27 0 5 7 9 15 9 8 0 15 7 15 15 0 8 9 15 19 15 11 0 23
9 26 20 4 11 11 17 17 14 6 -4 8 -2 5 3 -4 6 0 14 9 17 8 3 13 10 10 15 -3 5
6 16 20 26 14 9 23 19 19 23 -3 4 -10 0 -15 -8 -5 -8 -13 -11 -17 -6 -4 5 -2
11 5 13 6 3 10 9 7 14 -4 5 2 6 11 2 12 -4 15 -3 10 6 -10 16 33 63 48 54 6
-4 4 2 -4 12 -14 17 -13 18 2 13 21 -9 44 20 43 52 -1 23 2 25 28 22 20 -3 28
-1 23 6 -3 6 4 18 16 26 26 18 28 19 46 7z m-7428 -91 c0 -5 -2 -10 -4 -10 -3
0 -8 5 -11 10 -3 6 -1 10 4 10 6 0 11 -4 11 -10z m-55 -45 c-2 -37 -15 -43
-15 -7 0 18 4 32 8 32 4 0 7 -11 7 -25z m28 -35 c-3 -11 -9 -20 -15 -20 -5 0
-4 9 2 20 6 11 12 20 14 20 2 0 2 -9 -1 -20z m7197 -99 c-8 -5 -19 -9 -25 -10
-5 0 -13 -10 -17 -23 l-6 -23 -1 23 c-1 15 7 26 22 32 29 11 46 12 27 1z
m-6295 -541 c3 -6 -1 -7 -9 -4 -18 7 -21 14 -7 14 6 0 13 -4 16 -10z m-248
-15 c0 -8 -4 -12 -9 -9 -5 3 -6 10 -3 15 9 13 12 11 12 -6z m233 -5 c0 -5 -7
-10 -16 -10 -10 0 -14 -6 -10 -15 3 -8 1 -15 -4 -15 -18 0 -11 38 8 43 9 3 18
5 20 6 1 0 2 -3 2 -9z m48 -11 c-18 -12 -38 -11 -38 2 0 5 5 7 10 4 6 -3 10
-2 10 4 0 6 7 8 16 4 13 -5 13 -7 2 -14z"/>
<path d="M7240 10920 c0 -5 5 -10 10 -10 6 0 10 5 10 10 0 6 -4 10 -10 10 -5
0 -10 -4 -10 -10z"/>
<path d="M7650 11080 c0 -6 9 -23 21 -39 11 -15 23 -43 26 -61 6 -39 38 -86
48 -70 3 5 -1 22 -9 37 -8 16 -27 54 -40 86 -23 51 -46 75 -46 47z"/>
<path d="M7805 10830 c7 -34 40 -80 57 -80 16 0 7 22 -28 68 l-36 47 7 -35z"/>
<path d="M8931 5814 c0 -11 3 -14 6 -6 3 7 2 16 -1 19 -3 4 -6 -2 -5 -13z"/>
<path d="M8825 5510 c-10 -11 -15 -23 -11 -27 16 -16 33 -9 43 18 14 35 -4 40
-32 9z"/>
<path d="M7625 1320 c-3 -6 1 -7 9 -4 18 7 21 14 7 14 -6 0 -13 -4 -16 -10z"/>
<path d="M5783 11904 c-18 -9 -33 -20 -33 -25 0 -17 29 -9 57 16 32 28 22 32
-24 9z"/>
<path d="M8123 11899 c9 -6 27 -12 40 -14 21 -4 21 -4 3 10 -11 8 -29 15 -40
15 -19 -1 -20 -1 -3 -11z"/>
<path d="M5705 11860 c-3 -5 -1 -10 4 -10 6 0 11 5 11 10 0 6 -2 10 -4 10 -3
0 -8 -4 -11 -10z"/>
<path d="M10610 9033 c0 -4 5 -15 10 -23 8 -13 10 -13 10 2 0 9 -4 20 -10 23
-5 3 -10 3 -10 -2z"/>
<path d="M5648 7858 c5 -5 16 -8 23 -6 8 3 3 7 -10 11 -17 4 -21 3 -13 -5z"/>
<path d="M6425 7770 c-3 -5 3 -10 14 -10 12 0 21 5 21 10 0 6 -6 10 -14 10 -8
0 -18 -4 -21 -10z"/>
<path d="M6241 7732 c-8 -14 -6 -19 5 -19 7 0 14 9 14 19 0 10 -2 18 -5 18 -2
0 -9 -8 -14 -18z"/>
<path d="M6145 7730 c-18 -8 -17 -9 8 -9 15 -1 27 4 27 9 0 12 -8 12 -35 0z"/>
<path d="M7870 7720 c-6 -12 -9 -24 -7 -27 3 -2 11 5 17 17 6 12 9 24 7 27 -3
2 -11 -5 -17 -17z"/>
<path d="M6098 7713 c7 -3 16 -2 19 1 4 3 -2 6 -13 5 -11 0 -14 -3 -6 -6z"/>
<path d="M6390 7699 c-19 -10 -30 -18 -23 -19 18 0 63 22 63 32 0 4 -1 8 -2 7
-2 -1 -19 -9 -38 -20z"/>
<path d="M6439 7670 c-19 -15 -21 -19 -7 -20 15 0 48 24 48 36 0 10 -20 3 -41
-16z"/>
<path d="M6076 7657 c-5 -20 -11 -22 -48 -20 -36 2 -39 1 -18 -6 14 -5 38 -12
53 -16 21 -4 27 -10 23 -22 -5 -13 0 -15 36 -9 23 4 47 11 53 15 5 5 33 14 62
20 28 7 60 22 70 33 18 20 18 20 -17 13 -19 -5 -55 -9 -80 -10 -25 0 -57 -9
-72 -19 -22 -15 -29 -15 -41 -5 -8 8 -12 21 -9 31 2 10 2 18 -1 18 -3 0 -7
-10 -11 -23z"/>
<path d="M6270 7585 c-7 -8 -28 -15 -47 -15 -19 0 -32 -4 -29 -9 4 -5 -3 -7
-14 -4 -11 3 -20 0 -20 -6 0 -7 20 -11 51 -11 31 0 48 4 44 10 -3 6 4 10 17
10 13 0 30 5 38 10 12 8 12 10 -5 11 l-20 0 20 9 c20 8 19 9 -1 9 -12 1 -27
-6 -34 -14z"/>
<path d="M6070 7560 c0 -5 12 -10 28 -9 24 0 25 1 7 9 -27 12 -35 12 -35 0z"/>
<path d="M8187 7553 c3 -7 6 -13 8 -13 1 0 7 6 13 13 8 10 6 13 -7 13 -11 0
-17 -6 -14 -13z"/>
<path d="M6468 7553 c6 -2 18 -2 25 0 6 3 1 5 -13 5 -14 0 -19 -2 -12 -5z"/>
<path d="M6370 7530 c0 -5 15 -10 34 -10 19 0 38 5 41 10 4 6 -10 10 -34 10
-23 0 -41 -4 -41 -10z"/>
<path d="M6323 7523 c9 -2 23 -2 30 0 6 3 -1 5 -18 5 -16 0 -22 -2 -12 -5z"/>
<path d="M8176 7505 c4 -8 11 -15 16 -15 6 0 5 6 -2 15 -7 8 -14 15 -16 15 -2
0 -1 -7 2 -15z"/>
<path d="M6360 7488 c-25 -5 -55 -7 -67 -5 -13 2 -23 0 -23 -6 0 -9 129 -2
139 9 10 9 -6 10 -49 2z"/>
<path d="M8315 7479 c-4 -6 -4 -13 -1 -16 3 -4 6 -1 6 6 0 7 5 9 10 6 6 -3 10
-1 10 4 0 14 -17 14 -25 0z"/>
<path d="M6446 7445 c-3 -8 -1 -15 3 -15 5 0 11 7 15 15 3 8 1 15 -3 15 -5 0
-11 -7 -15 -15z"/>
<path d="M6525 7430 c-3 -5 -32 -11 -63 -12 l-57 -2 49 -3 c56 -5 96 3 96 17
0 13 -17 13 -25 0z"/>
<path d="M6378 7403 c7 -3 16 -2 19 1 4 3 -2 6 -13 5 -11 0 -14 -3 -6 -6z"/>
<path d="M6630 7401 c0 -5 -9 -11 -20 -14 -11 -3 -18 -1 -14 4 8 14 -14 10
-101 -16 -67 -20 -80 -33 -26 -25 11 1 11 -2 -2 -14 -17 -18 -82 -22 -92 -6
-8 13 -25 13 -25 1 0 -5 12 -14 28 -19 l27 -10 -25 -2 c-23 -1 -22 -3 13 -21
21 -11 35 -24 32 -29 -3 -4 12 -14 32 -20 21 -7 44 -17 51 -23 9 -7 20 -6 37
1 17 8 25 8 25 1 0 -5 15 -16 34 -24 19 -8 36 -20 38 -26 4 -12 66 -38 112
-46 16 -3 23 -9 17 -13 -11 -6 6 -15 94 -51 11 -4 60 -26 109 -48 48 -23 92
-39 96 -36 5 3 10 0 12 -7 4 -10 23 -17 55 -20 7 -1 10 -5 8 -9 -10 -16 8 -39
31 -39 12 0 30 -10 38 -22 11 -16 27 -22 66 -24 27 -1 50 2 50 6 0 5 9 12 20
15 27 9 25 25 -2 25 -22 1 -22 1 -5 14 17 13 16 15 -7 32 -13 11 -26 30 -28
44 -2 14 -9 31 -16 38 -7 8 -10 17 -7 22 3 4 -6 11 -20 14 -14 4 -25 11 -25
16 0 13 -68 55 -102 64 -15 3 -32 15 -38 26 -6 11 -17 20 -24 20 -8 0 -19 7
-26 15 -6 7 -32 17 -56 21 -40 6 -62 23 -31 24 6 1 -7 10 -30 21 -27 14 -47
32 -58 56 -13 26 -20 32 -28 24 -9 -9 -8 -14 3 -21 12 -8 9 -10 -12 -10 -18 0
-28 5 -28 15 0 8 -8 15 -17 15 -15 0 -16 -2 -3 -10 11 -7 6 -8 -15 -5 -17 2
-36 4 -42 4 -7 1 -13 6 -13 11 0 6 11 8 25 4 15 -4 25 -2 25 5 0 6 -11 11 -24
11 -29 0 -44 19 -25 31 23 15 0 10 -32 -6 -16 -9 -29 -12 -28 -8 4 21 -2 33
-16 33 -8 0 -15 -4 -15 -9z m-145 -111 c18 -8 18 -9 -5 -9 -14 0 -32 4 -40 9
-12 8 -12 10 5 9 11 0 29 -4 40 -9z"/>
<path d="M8420 7315 c0 -2 9 -9 20 -15 16 -9 18 -8 14 5 -5 13 -34 22 -34 10z"/>
<path d="M5888 7113 c6 -2 12 -11 12 -19 0 -8 4 -14 9 -14 5 0 16 -3 25 -6 9
-3 16 -2 16 3 0 10 -53 43 -67 42 -4 0 -2 -3 5 -6z"/>
<path d="M8605 7020 c3 -5 10 -10 16 -10 5 0 9 5 9 10 0 6 -7 10 -16 10 -8 0
-12 -4 -9 -10z"/>
<path d="M6860 6985 c0 -20 -4 -26 -15 -21 -13 4 -13 2 -5 -14 8 -15 6 -20 -9
-25 -10 -3 -25 -3 -34 1 -15 5 -45 -14 -50 -33 -1 -4 -5 -7 -9 -5 -5 1 -8 -9
-8 -23 0 -14 -5 -25 -11 -25 -6 0 -18 -7 -26 -16 -15 -15 -56 -14 -99 3 -8 3
-27 -8 -44 -27 -50 -53 -120 -45 -281 36 -48 23 -110 59 -138 79 -33 24 -51
32 -52 23 -1 -7 -3 -23 -4 -35 -1 -13 2 -23 6 -23 5 0 9 -11 9 -25 0 -17 4
-23 14 -19 15 6 51 -39 57 -70 2 -11 23 -29 46 -40 23 -12 42 -27 43 -33 0 -7
7 -13 15 -13 9 0 18 -7 21 -15 4 -8 16 -15 29 -15 13 0 25 -7 29 -15 3 -8 17
-15 31 -15 18 0 25 -5 25 -19 0 -11 6 -22 13 -24 6 -3 -10 -4 -38 -1 -27 2
-60 4 -72 4 -12 0 -25 5 -28 10 -3 6 -17 10 -31 10 -14 0 -22 -4 -19 -10 3 -5
12 -10 20 -10 7 0 43 -13 78 -30 36 -16 72 -30 81 -30 9 0 24 -4 34 -8 9 -5
26 -13 37 -19 11 -5 47 -11 80 -12 33 -2 63 -5 68 -8 4 -2 15 1 23 8 8 6 17 9
20 6 4 -3 25 2 48 11 43 17 78 50 72 68 -2 6 1 11 7 12 40 3 77 22 77 38 0 11
5 11 31 0 32 -13 73 -11 64 4 -3 4 7 11 20 14 14 4 23 11 20 16 -3 6 1 10 10
10 9 0 14 4 11 9 -3 5 3 11 14 14 11 3 20 13 20 22 0 9 4 14 9 10 8 -5 -3 33
-30 104 -9 23 -10 23 -24 5 -13 -17 -14 -16 -11 19 3 27 0 40 -11 44 -8 3 -12
12 -9 19 7 18 -12 28 -27 16 -13 -11 -68 -11 -61 -1 2 4 -3 12 -11 19 -8 7
-13 23 -11 36 3 13 0 26 -5 29 -5 4 -9 -6 -9 -20z"/>
<path d="M8632 6970 c7 -11 16 -20 20 -20 5 0 3 9 -4 20 -7 11 -16 20 -20 20
-5 0 -3 -9 4 -20z"/>
<path d="M9997 6174 c4 -11 8 -12 13 -4 5 8 9 6 14 -6 3 -9 9 -14 13 -11 8 9
-17 37 -33 37 -8 0 -11 -6 -7 -16z"/>
<path d="M6100 5595 c0 -8 5 -15 10 -15 6 0 10 7 10 15 0 8 -4 15 -10 15 -5 0
-10 -7 -10 -15z"/>
<path d="M6055 5590 c-3 -5 1 -10 9 -10 9 0 16 5 16 10 0 6 -4 10 -9 10 -6 0
-13 -4 -16 -10z"/>
<path d="M6228 4824 c6 -3 10 -10 6 -15 -3 -5 7 -9 22 -9 32 0 22 15 -16 24
-14 3 -19 3 -12 0z"/>
<path d="M5187 4216 c-4 -9 3 -13 19 -13 29 0 30 3 5 16 -14 8 -20 7 -24 -3z"/>
<path d="M7420 4049 c0 -5 5 -7 10 -4 6 3 10 8 10 11 0 2 -4 4 -10 4 -5 0 -10
-5 -10 -11z"/>
<path d="M5204 3661 c3 -5 15 -7 26 -4 28 7 25 13 -6 13 -14 0 -23 -4 -20 -9z"/>
<path d="M5365 3650 c-3 -5 1 -10 9 -10 9 0 16 5 16 10 0 6 -4 10 -9 10 -6 0
-13 -4 -16 -10z"/>
<path d="M61 1174 c0 -11 3 -14 6 -6 3 7 2 16 -1 19 -3 4 -6 -2 -5 -13z"/>
</g>
</svg>
